<?xml version="1.0" standalone="no"?>
<!DOCTYPE svg PUBLIC "-//W3C//DTD SVG 1.1//EN" "http://www.w3.org/Graphics/SVG/1.1/DTD/svg11.dtd" >
<svg xmlns="http://www.w3.org/2000/svg">
<metadata></metadata>
<defs>
<font id="harriet_textitalic" horiz-adv-x="1171" >
<font-face units-per-em="2048" ascent="1638" descent="-410" />
<missing-glyph horiz-adv-x="409" />
<glyph unicode="&#xfb01;" horiz-adv-x="1308" d="M-457 -326q0 58 36 97t93 39q51 0 82 -31.5t31 -77.5q0 -50 -27.5 -81.5t-58.5 -29.5q37 -18 102 -18q93 0 161 66.5t114 238.5l266 1004l-205 22l17 66l215 16h2l35 133q126 473 526 473q143 0 223 -63t80 -162q0 -65 -40 -104t-101 -39q-52 0 -86.5 32.5t-34.5 85.5 q0 52 36 85.5t85 33.5h2q-51 60 -168 60q-126 0 -210.5 -79.5t-123.5 -230.5q-46 -181 -59 -229h342l253 29l56 -15l-84 -198l-168 -506q-35 -107 -35 -150q0 -67 70 -67q54 0 102 61.5t100 200.5l62 -17q-61 -175 -131.5 -257t-183.5 -82q-85 0 -136 45t-51 120 q0 67 45 197l139 424q19 59 19 94q0 25 -18 37t-60 12l-346 -20l-231 -869q-40 -150 -90.5 -253t-112.5 -160.5t-129 -82t-152 -24.5q-117 0 -184.5 48t-67.5 126z" />
<glyph unicode="&#xfb02;" horiz-adv-x="1312" d="M-457 -326q0 58 36 97t93 39q51 0 82 -31.5t31 -77.5q0 -50 -27.5 -81.5t-58.5 -29.5q37 -18 102 -18q93 0 161 66.5t114 238.5l266 1004l-205 22l17 66l215 16l53 201q51 194 176 299.5t307 105.5q85 0 157.5 -22.5t115.5 -61.5l108 70l53 -10l-88 -226l-309 -1062 q-24 -82 -24 -129q0 -37 20.5 -56.5t54.5 -19.5q56 0 101 61t100 201l61 -17q-68 -184 -133.5 -261.5t-179.5 -77.5q-83 0 -135.5 46.5t-52.5 123.5q0 64 26 155l178 610l-446 -22l-233 -873q-40 -150 -90.5 -253t-112.5 -160.5t-129 -82t-152 -24.5q-117 0 -184.5 48 t-67.5 126zM535 981h442l92 315q10 34 10 74q0 70 -47 110t-135 40q-219 0 -301 -291q-12 -42 -32.5 -130.5t-28.5 -117.5z" />
<glyph unicode="&#xfb03;" horiz-adv-x="1914" d="M-457 -326q0 58 36 97t93 39q51 0 82 -31.5t31 -77.5q0 -50 -27.5 -81.5t-58.5 -29.5q37 -18 102 -18q93 0 161 66.5t114 238.5l264 1004l-203 22l17 66l215 16l47 180q51 194 178.5 300t310.5 106q186 0 291 -105q134 125 340 125q144 0 223.5 -63t79.5 -162 q0 -65 -39.5 -104t-101.5 -39q-51 0 -85 32.5t-34 85.5q0 52 35 85.5t84 33.5l4 -2q-52 62 -170 62q-251 0 -334 -310q-10 -37 -29.5 -117t-27.5 -112h340l256 29l53 -15l-82 -198l-168 -506q-35 -107 -35 -150q0 -67 70 -67q53 0 101 62t102 200l61 -17 q-63 -176 -133.5 -257.5t-183.5 -81.5q-85 0 -136 45t-51 120q0 67 45 197l142 424q18 56 18 94q0 49 -80 49l-340 -6l-233 -874q-38 -142 -88.5 -241.5t-113.5 -157.5t-133 -83.5t-155 -25.5q-199 0 -299 108q-116 -129 -303 -129q-117 0 -184.5 48t-67.5 126zM184 -240 q47 -168 217 -168q46 0 84.5 13.5t76 45.5t68.5 92t54 146l268 1012l-438 -8h-2l-233 -873l-13 -45q-40 -136 -82 -215zM535 981h438l37 137l10 39q39 122 88 199q-20 67 -78 104t-137 37q-222 0 -303 -289q-13 -40 -30.5 -122t-24.5 -105z" />
<glyph unicode="&#xfb04;" horiz-adv-x="1918" d="M-457 -326q0 58 36 97t93 39q51 0 82 -31.5t31 -77.5q0 -50 -27.5 -81.5t-58.5 -29.5q37 -18 102 -18q93 0 161 66.5t114 238.5l264 1004l-203 22l17 66l215 16l47 180q51 194 178.5 300t310.5 106q184 0 285 -98q127 118 321 118q86 0 158 -22t115 -60l106 68l56 -10 l-88 -226l-310 -1062q-24 -82 -24 -129q0 -37 20.5 -56.5t52.5 -19.5q57 0 102.5 62t98.5 200l62 -17q-34 -92 -62.5 -150t-65.5 -103.5t-82 -65.5t-104 -20q-83 0 -134.5 46.5t-51.5 123.5q0 71 24 155l179 610l-443 -10l-233 -876q-38 -142 -88.5 -241.5t-113.5 -157.5 t-133 -83.5t-155 -25.5q-199 0 -299 108q-116 -129 -303 -129q-117 0 -184.5 48t-67.5 126zM184 -240q47 -168 217 -168q46 0 84.5 13.5t76 45.5t68.5 92t54 146l266 1014l-436 -10h-2l-233 -873l-13 -45q-40 -136 -82 -215zM535 981h438l53 205l10 33q24 83 68 151 q-24 61 -80.5 94t-130.5 33q-222 0 -303 -289q-13 -40 -30.5 -122t-24.5 -105zM1141 981h442l92 315l6 27q5 40 5 47q0 70 -47.5 110t-135.5 40q-219 0 -301 -291q-14 -47 -36 -141.5t-25 -106.5z" />
<glyph horiz-adv-x="0" />
<glyph horiz-adv-x="682" />
<glyph unicode=" "  horiz-adv-x="409" />
<glyph unicode="&#x09;" horiz-adv-x="409" />
<glyph unicode="&#xa0;" horiz-adv-x="409" />
<glyph unicode="!" horiz-adv-x="671" d="M111 102q0 63 41 99.5t98 36.5q52 0 86.5 -31.5t34.5 -89.5q0 -62 -39 -98.5t-96 -36.5q-52 0 -88.5 32.5t-36.5 87.5zM287 438q56 213 79.5 355.5t29.5 258t10 144.5q4 46 14 81.5t30 70t57 53t89 18.5q57 0 84.5 -31t24.5 -85q-3 -57 -26 -113t-60.5 -120t-80 -140 t-94.5 -205.5t-94 -286.5h-63z" />
<glyph unicode="&#x22;" horiz-adv-x="1011" d="M391 934l125 633h197l-232 -633h-90zM766 934l125 633h196l-231 -633h-90z" />
<glyph unicode="#" horiz-adv-x="1228" d="M127 362v138h254l115 303h-244v135h295l131 344h74l-131 -344h280l131 344h74l-131 -344h199v-135h-250l-115 -303h240v-138h-291l-137 -362h-74l137 362h-283l-137 -362h-74l138 362h-201zM455 500h280l115 303h-281z" />
<glyph unicode="$" horiz-adv-x="1228" d="M57 256q0 64 38.5 102.5t97.5 38.5q47 0 77.5 -31.5t30.5 -78.5q0 -40 -21.5 -69t-56.5 -38q26 -43 89.5 -73t152.5 -37l141 491l-8 2q-149 53 -227 126.5t-78 184.5q0 102 45 183t119 128.5t162 72t182 24.5h6l39 139h78l-41 -143q147 -17 237 -86.5t90 -161.5 q0 -63 -39.5 -103t-97.5 -40q-49 0 -79.5 31t-30.5 79q0 50 30.5 81.5t65.5 29.5q-49 82 -197 100l-135 -477l16 -6q147 -55 221 -127t74 -184q0 -105 -43 -186t-116.5 -130t-164.5 -73.5t-194 -24.5l-67 -236h-76l67 238q-172 12 -279.5 84.5t-107.5 169.5zM455 963 q0 -74 53 -120.5t154 -86.5l126 456q-144 -2 -238.5 -69t-94.5 -180zM539 68h14q145 8 234.5 74.5t89.5 179.5q0 79 -50.5 126.5t-154.5 88.5z" />
<glyph unicode="%" horiz-adv-x="1388" d="M90 39l639 641l586 627l61 -58l-616 -620l-608 -647zM221 934q0 153 110.5 268t266.5 115q106 0 173 -60t67 -163q0 -99 -50 -187.5t-137.5 -142t-189.5 -53.5q-106 0 -173 60t-67 163zM352 903q0 -129 115 -129q69 0 126 58.5t85.5 137.5t28.5 154q0 129 -117 129 q-68 0 -124.5 -58.5t-85 -138t-28.5 -153.5zM633 195q0 153 110.5 268t266.5 115q105 0 171 -60.5t66 -163.5q0 -100 -49.5 -188t-136.5 -141.5t-189 -53.5q-106 0 -172.5 60.5t-66.5 163.5zM762 164q0 -63 30 -96t87 -33q69 0 126 58.5t85 137.5t28 154q0 129 -117 129 q-69 0 -126 -58.5t-85 -137.5t-28 -154z" />
<glyph unicode="&#x26;" horiz-adv-x="1585" d="M61 387q0 132 85 223.5t223 128.5q-68 78 -68 199q0 73 26.5 139.5t76.5 119t129.5 83.5t177.5 31q131 0 222 -64t91 -166q0 -73 -51 -115t-123 -42q-66 0 -113 28l23 41q30 -10 53 -10q30 0 48 17t18 49q0 60 -59 104.5t-156 44.5q-135 0 -212 -74.5t-77 -193.5 q0 -113 67 -174q46 6 97 6q90 0 159 -21q16 -40 -7 -72t-85 -32q-114 0 -190 59q-94 -23 -142.5 -83t-48.5 -150q0 -158 142 -255t393 -97q284 0 440 107.5t156 277.5q0 107 -58.5 167t-160.5 60q-100 0 -161 -54.5t-61 -142.5q0 -49 22.5 -84t59.5 -51q-28 28 -28 72t28 71 t74 27q49 0 78 -29t29 -77q0 -51 -37 -86t-99 -35q-77 0 -134.5 57.5t-57.5 161.5q0 85 41 157t113 115q53 33 125 52t159 34t137 31q77 25 114.5 66t37.5 114q0 60 -40 97.5t-89 37.5q41 -23 41 -79q0 -43 -29 -72t-76 -29q-46 0 -76 28t-30 79q0 54 40 90.5t107 36.5 q92 0 156 -61t64 -167q0 -107 -56.5 -184t-147.5 -113t-204 -36q88 -27 138 -98t50 -179q0 -94 -47 -182t-136 -160t-233.5 -116t-322.5 -44q-291 0 -458 116t-167 300zM520 711l17 -6v6h-17z" />
<glyph unicode="'" horiz-adv-x="630" d="M391 934l125 633h197l-232 -633h-90z" />
<glyph unicode="(" horiz-adv-x="839" d="M193 334v8q0 188 55 365.5t157.5 331.5t237 288t305.5 254l37 -45q-303 -264 -458.5 -567t-155.5 -680v-8q0 -191 48.5 -360.5t115.5 -272.5l-43 -33q-50 51 -98 120t-95.5 161t-76.5 207t-29 231z" />
<glyph unicode=")" horiz-adv-x="839" d="M-109 -336q303 264 459 567t156 680v9q0 191 -48.5 359.5t-115.5 272.5l43 33q50 -51 98 -120t95.5 -161t76.5 -207t29 -231v-8q0 -188 -55 -365.5t-158 -331.5t-237.5 -288t-305.5 -254z" />
<glyph unicode="*" horiz-adv-x="1044" d="M389 1341q4 33 27 51.5t55 18.5q16 0 31 -6q20 -10 40.5 -31t55 -56.5t80.5 -70.5l-12 -28q-62 17 -125 22t-66 6q-42 8 -66 32.5t-20 61.5zM442 1012q3 23 27 47q21 21 84 48t121 64l22 -20q-38 -56 -65 -118.5t-53 -86.5q-31 -25 -62 -22q-33 3 -56 30.5t-18 57.5z M684 1507q4 35 30 54t60 16t53.5 -28.5t14.5 -59.5q-4 -37 -36 -95t-52 -120l-33 4q-5 68 -23 130.5t-14 98.5zM743 1145l29 14q38 -42 75.5 -71.5t60 -47.5t36.5 -39q17 -26 14 -53q-5 -31 -31.5 -50.5t-60.5 -16.5q-37 4 -55 34q-21 31 -32 98.5t-36 131.5zM786 1233 q66 29 127.5 64.5t87.5 43.5q8 2 19 2q34 0 54.5 -26.5t15.5 -61.5q-8 -69 -101 -69q-12 0 -73 9t-123 7z" />
<glyph unicode="+" horiz-adv-x="1126" d="M109 465l22 94h401l107 397h94l-106 -397h401l-22 -94h-404l-106 -402h-95l107 402h-399z" />
<glyph unicode="," horiz-adv-x="626" d="M-86 -334q150 61 246 158t96 186q-26 -20 -68 -20q-51 0 -85.5 33t-34.5 88q0 67 42.5 107t104.5 40q68 0 109 -48.5t41 -121.5q0 -323 -420 -498z" />
<glyph unicode="-" horiz-adv-x="698" d="M66 459l30 102h506l-27 -102h-509z" />
<glyph unicode="." horiz-adv-x="620" d="M74 113q0 66 43.5 105.5t103.5 39.5q56 0 93.5 -35.5t37.5 -95.5q0 -65 -43.5 -105t-103.5 -40q-54 0 -92.5 36.5t-38.5 94.5z" />
<glyph unicode="/" horiz-adv-x="903" d="M-92 -205l1032 1698h109l-1029 -1698h-112z" />
<glyph unicode="0" horiz-adv-x="1257" d="M92 373q0 105 31.5 209.5t92 196.5t141.5 163t188.5 112.5t224.5 41.5q189 0 297.5 -108t108.5 -294q0 -105 -31.5 -209.5t-92 -196.5t-141.5 -163t-188.5 -112.5t-224.5 -41.5q-189 0 -297.5 108t-108.5 294zM283 283q0 -113 54 -175.5t165 -62.5q82 0 159 46.5 t134.5 123.5t101 172.5t66 198.5t22.5 198q0 111 -54.5 174.5t-164.5 63.5q-83 0 -160 -46.5t-134.5 -123.5t-101 -173t-65.5 -198.5t-22 -197.5z" />
<glyph unicode="1" horiz-adv-x="946" d="M-2 0l18 68l254 32q35 5 45 39l174 629q21 68 -1 98t-107 37l-137 12l16 60l223 20q86 8 131 24t80 58h70l-84 -276l-184 -660q-11 -36 28 -41l228 -32l-19 -68h-735z" />
<glyph unicode="2" horiz-adv-x="1124" d="M16 0v92q307 166 533 324q154 108 230.5 210t76.5 224q0 79 -56 124.5t-155 45.5q-106 0 -192 -43t-123 -113h2q43 0 72.5 -28t29.5 -74q0 -52 -34 -85.5t-87 -33.5q-55 0 -89 33.5t-34 87.5q0 135 135.5 233.5t329.5 98.5q177 0 286.5 -72.5t109.5 -202.5 q0 -44 -12.5 -84.5t-30 -73.5t-53 -68.5t-66 -61.5t-84.5 -61t-92.5 -58t-106.5 -62q-46 -27 -104.5 -58.5t-137.5 -73t-118 -62.5h493q36 0 52.5 8t35.5 37l84 127h70l-127 -330h-838z" />
<glyph unicode="3" horiz-adv-x="1138" d="M-61 -127q0 57 37 96t92 39q49 0 77.5 -28.5t28.5 -73.5q0 -49 -30.5 -79t-71.5 -30q62 -76 219 -76q104 0 194 44t149.5 115t93.5 160t34 179q0 92 -50.5 142.5t-138.5 50.5q-53 0 -98 -14t-70 -30t-53.5 -30t-52.5 -14q-35 0 -54 24t-14 60q92 43 258 57 q58 25 104.5 50.5t95 62t81 76t53.5 92.5t21 112q0 74 -58.5 119t-158.5 45t-186 -40t-122 -101l9 2q43 0 70.5 -25t27.5 -67q0 -47 -32 -78t-85 -31q-47 0 -78.5 31t-31.5 84q0 117 131.5 208t318.5 91q171 0 279 -67t108 -183q0 -34 -8.5 -65t-22 -56t-37 -49.5t-45.5 -43 t-56 -38.5t-61 -34t-67 -31.5t-67.5 -28.5t-70 -27.5t-66.5 -26.5q73 15 127 15q59 0 111 -15.5t95 -47t68 -86t25 -126.5q0 -148 -94.5 -273t-245 -195t-316.5 -70q-167 0 -266.5 62.5t-99.5 162.5z" />
<glyph unicode="4" d="M-20 111v59l856 897h149l-2 -2l6 2l-252 -891h86q50 0 76.5 18.5t56.5 71.5l58 99h59l-92 -254h-264l-84 -299q-9 -32 29 -39l153 -35l-18 -62h-570l19 64l172 33q18 3 26 11.5t13 25.5l84 301h-561zM96 188l463 -12l201 709z" />
<glyph unicode="5" horiz-adv-x="1122" d="M-49 -129q0 58 36 97.5t93 39.5q48 0 77 -29.5t29 -74.5q0 -49 -30.5 -78t-73.5 -29q58 -76 199 -76q103 0 189.5 47.5t142 125t86 174t30.5 196.5q0 103 -47 159t-133 56q-168 0 -313 -151l-93 12l277 727h69q114 -49 285 -49q208 0 318 63l36 -28q-67 -101 -169 -149 t-257 -48q-154 0 -270 35l-168 -436q134 92 311 92q94 0 172 -34.5t129.5 -110t51.5 -181.5q0 -92 -34 -180t-95 -158t-140 -123.5t-174.5 -82.5t-193.5 -29q-153 0 -246.5 63t-93.5 160z" />
<glyph unicode="6" horiz-adv-x="1169" d="M113 434q0 177 62 354t166 316.5t253.5 227t312.5 87.5q138 0 224 -58t86 -153q0 -58 -34.5 -92.5t-88.5 -34.5q-47 0 -78 29t-31 72q0 45 27.5 76.5t66.5 31.5l15 -2q-46 60 -172 60q-96 0 -190 -53.5t-172 -149.5t-138 -219t-93.5 -271.5t-33.5 -298.5 q0 -142 55.5 -226.5t159.5 -84.5q99 0 179.5 71t124.5 186.5t44 248.5q0 242 -186 242q-69 0 -150 -31l-22 61q111 49 215 49q142 0 232.5 -89.5t90.5 -256.5q0 -117 -43 -221t-115 -176.5t-167 -115t-197 -42.5q-85 0 -156.5 26.5t-127.5 80.5t-87.5 145t-31.5 211z" />
<glyph unicode="7" horiz-adv-x="1052" d="M133 707l135 411h54q3 -27 18.5 -39t52.5 -12h711v-72q-17 -21 -63 -74.5t-67.5 -78.5t-61 -73t-65 -81.5t-58 -78t-60.5 -85.5q-218 -333 -307 -733q-28 -137 -143 -137q-48 0 -75.5 27t-27.5 69q0 119 144 352.5t339 470.5q115 138 297 336h-565q-41 0 -61 -11.5 t-45 -49.5l-82 -141h-70z" />
<glyph unicode="8" horiz-adv-x="1189" d="M80 283q0 161 118.5 271.5t295.5 150.5q-185 102 -185 288q0 122 67 220.5t179.5 152t245.5 53.5q159 0 269 -77t110 -207q0 -91 -50.5 -168t-126 -126t-169.5 -77q49 -25 85 -52.5t69.5 -66.5t51 -92t17.5 -119q0 -138 -75.5 -245t-200.5 -162.5t-275 -55.5 q-191 0 -308.5 82.5t-117.5 229.5zM248 279q0 -104 74 -170t200 -66q155 0 253.5 92t98.5 238q0 39 -9 71.5t-29 58t-40 44.5t-54.5 38t-58.5 30.5t-65.5 29.5t-64.5 29q-136 -37 -220.5 -150.5t-84.5 -244.5zM479 1061q0 -33 9 -61t29 -51.5t39 -40.5t52 -35t55 -29 t60.5 -28t56.5 -25l23 10q101 45 162 141t61 201q0 99 -60 152t-171 53q-139 0 -227.5 -84t-88.5 -203z" />
<glyph unicode="9" d="M-35 -141q0 58 35 92.5t90 34.5q46 0 77.5 -29t31.5 -72q0 -44 -28.5 -76t-68.5 -32l-14 2q50 -60 174 -60q119 0 234 84t200.5 220t138 318.5t52.5 369.5q0 142 -55.5 226.5t-159.5 84.5q-99 0 -179.5 -71t-124.5 -186.5t-44 -248.5q0 -242 188 -242q66 0 147 31l23 -61 q-111 -49 -215 -49q-142 0 -233 89.5t-91 256.5q0 117 43.5 221t115.5 176.5t168 115t198 42.5q85 0 156 -26.5t127 -80.5t88 -145t32 -211q0 -177 -62 -354t-166.5 -316.5t-254.5 -227t-314 -87.5q-137 0 -223 58t-86 153z" />
<glyph unicode=":" horiz-adv-x="684" d="M106 113q0 66 44 105.5t104 39.5q56 0 93.5 -35.5t37.5 -95.5q0 -65 -43.5 -105t-103.5 -40q-54 0 -93 36.5t-39 94.5zM281 856q0 66 43.5 105.5t103.5 39.5q56 0 93.5 -35.5t37.5 -95.5q0 -65 -43.5 -105t-103.5 -40q-54 0 -92.5 36.5t-38.5 94.5z" />
<glyph unicode=";" horiz-adv-x="690" d="M-51 -334q150 61 246 158t96 186q-26 -20 -68 -20q-51 0 -86 33t-35 88q0 67 43 107t105 40q68 0 108.5 -48t40.5 -122q0 -323 -419 -498zM279 856q0 66 43.5 105.5t103.5 39.5q56 0 93.5 -35.5t37.5 -95.5q0 -65 -43.5 -105t-103.5 -40q-54 0 -92.5 36.5t-38.5 94.5z " />
<glyph unicode="&#x3c;" horiz-adv-x="1126" d="M117 473l20 74l916 411l32 -81l-856 -373l650 -363l-48 -80z" />
<glyph unicode="=" horiz-adv-x="1126" d="M59 270l25 92h897l-25 -92h-897zM162 659l24 93h897l-24 -93h-897z" />
<glyph unicode="&#x3e;" horiz-adv-x="1126" d="M45 145l856 373l-649 363l47 80l715 -412l-21 -74l-915 -412z" />
<glyph unicode="?" horiz-adv-x="1138" d="M258 102q0 63 41 99.5t98 36.5q52 0 86.5 -31.5t34.5 -89.5q0 -62 -39 -98.5t-96 -36.5q-52 0 -88.5 32.5t-36.5 87.5zM285 1130q0 111 127.5 200t318.5 89q69 0 133.5 -12.5t123 -40t102 -67t69 -96.5t25.5 -126q0 -198 -131 -302.5t-348 -104.5q-70 0 -148 16l-82 -248 h-78l64 312l82 16q77 -29 155 -29q123 0 209 106.5t86 268.5q0 107 -71.5 170.5t-202.5 63.5q-92 0 -170 -34.5t-121 -84.5q43 -5 70.5 -34.5t27.5 -72.5q0 -49 -33.5 -80.5t-86.5 -31.5q-52 0 -86.5 33t-34.5 89z" />
<glyph unicode="@" horiz-adv-x="1972" d="M115 324q0 146 41 285t112.5 255t171.5 213.5t216 164.5t248 104.5t265 37.5q192 0 345.5 -79t244 -230t90.5 -348q0 -176 -74.5 -330.5t-198.5 -245t-263 -90.5q-108 0 -169 53t-61 140q0 13 4 45q-116 -225 -284 -225q-107 0 -169.5 69t-62.5 193q0 82 24.5 167.5 t71.5 162.5t108.5 137.5t142.5 96.5t167 36q151 0 222 -100l77 96h58l-88 -215l-111 -338q-26 -80 -26 -127q0 -127 126 -127q99 0 191.5 76t150.5 205t58 272q0 178 -81 318t-226.5 218t-329.5 78q-163 0 -317.5 -68t-272 -185.5t-189 -286.5t-71.5 -359q0 -205 87 -362.5 t248.5 -245.5t373.5 -88q135 0 263 33t224 96l35 -45q-257 -207 -588 -207q-164 0 -307 51.5t-249 146t-167 237t-61 315.5zM737 305q0 -83 24 -120.5t79 -37.5q157 0 297 418l73 228q-29 81 -120 81q-72 0 -140 -59.5t-113.5 -147t-72.5 -185t-27 -177.5z" />
<glyph unicode="A" horiz-adv-x="1353" d="M-166 0l21 74l157 41q47 10 74 53l649 1030l121 207h102l129 -1255q2 -19 8 -27t27 -12l150 -35l-21 -76h-606l19 76l180 35q22 5 30 13.5t7 27.5l-21 284h-502l-163 -264q-14 -25 -10 -38t30 -19l152 -39l-19 -76h-514zM412 522h444l-27 373l-10 264h-12z" />
<glyph unicode="B" horiz-adv-x="1378" d="M-45 0l20 76l187 33q40 7 49 38l293 1096q9 31 -29 39l-174 33l21 76h604q126 0 218 -24.5t150 -85t58 -153.5q0 -159 -130 -264t-339 -127l-4 -12q80 -6 144.5 -23.5t117 -48t81.5 -80t29 -114.5q0 -114 -54 -203.5t-147.5 -144t-213.5 -83t-258 -28.5h-623zM410 152 q-4 -16 -4 -28q0 -14 6 -24q12 -16 49 -16h121q214 0 332 105.5t118 304.5q0 109 -74.5 151.5t-230.5 42.5h-172zM578 770h165q196 0 301 111.5t105 279.5q0 89 -59.5 117.5t-200.5 28.5q-78 0 -168 -4z" />
<glyph unicode="C" horiz-adv-x="1423" d="M127 500q0 181 65.5 349.5t176.5 294t268 200.5t330 75q246 0 368 -145l90 137h70l-152 -555h-90q11 94 11 154q0 153 -71.5 239t-209.5 86q-120 0 -224 -53.5t-179 -145t-127 -203t-82 -239.5q-31 -143 -31 -268q0 -182 76.5 -276.5t228.5 -94.5q73 0 141 25.5t122 67 t103 101t86 122t70 135.5h93l-140 -526h-69l-7 135q-162 -144 -399 -144q-231 0 -374.5 141t-143.5 388z" />
<glyph unicode="D" horiz-adv-x="1531" d="M-43 0l18 76l187 33q42 8 51 38l293 1096q9 31 -31 39l-172 33l19 76h634q91 0 171.5 -17.5t151 -56t121.5 -95.5t80 -139.5t29 -183.5q0 -184 -64.5 -348t-180.5 -286t-288 -193.5t-376 -71.5h-643zM410 152q-4 -16 -4 -28q0 -16 7 -24q12 -16 50 -16h139q250 0 419 159 t243 443q32 123 32 295q0 165 -81 245.5t-254 80.5h-31q-115 0 -209 -4z" />
<glyph unicode="E" horiz-adv-x="1359" d="M-43 0l18 76l187 33q42 8 51 38l293 1096q9 31 -31 39l-172 33l19 76h1077l-68 -342h-96l-21 131q-12 82 -39 104.5t-114 22.5h-146q-90 0 -196 -4l-148 -549h187q56 0 82.5 15.5t62.5 72.5l101 153h69l-153 -577h-70l-8 160q-4 57 -26.5 77.5t-76.5 20.5h-188l-141 -524 q-9 -37 3 -52.5t50 -15.5h313q87 0 126.5 21.5t82.5 89.5l143 219h105l-131 -414h-1145z" />
<glyph unicode="F" horiz-adv-x="1275" d="M-43 0l18 76l187 33q42 8 51 38l293 1096q9 31 -31 39l-172 33l19 76h1081l-68 -342h-94l-20 131q-12 82 -39 104.5t-115 22.5h-152q-90 0 -196 -4l-148 -553h195q53 0 79.5 15t61.5 71l101 155h69l-153 -577h-68l-10 159q-4 58 -26 78.5t-75 20.5h-194l-141 -525 q-9 -30 30 -38l187 -35l-21 -74h-649z" />
<glyph unicode="G" horiz-adv-x="1464" d="M127 500q0 181 65.5 349.5t176.5 294t268 200.5t330 75q123 0 217 -38.5t151 -106.5l90 137h70l-152 -551h-90q11 86 11 150q0 152 -72 238.5t-209 86.5q-120 0 -224 -53.5t-179 -145t-127 -203t-82 -239.5q-31 -143 -31 -268q0 -371 303 -371q138 0 243 71.5t136 186.5 l43 162q8 23 0.5 34t-33.5 15l-203 39l19 74h647l-20 -74l-177 -35q-22 -3 -31 -10.5t-14 -23.5l-61 -234l-59 -287h-74l-21 133q-162 -135 -395 -135q-231 0 -373.5 141t-142.5 388z" />
<glyph unicode="H" horiz-adv-x="1644" d="M-45 0l20 76l187 33q40 7 49 38l293 1096q9 31 -31 39l-172 33l18 76h637l-18 -76l-190 -33q-39 -7 -48 -39l-131 -491h637l131 491q9 31 -28 39l-172 33l20 76h635l-20 -74l-191 -35q-21 -4 -30.5 -13t-14.5 -24l-291 -1098q-9 -31 27 -38l174 -33l-21 -76h-634l18 76 l186 33q39 7 49 36l140 523h-637l-139 -521q-5 -16 1 -25t27 -13l172 -35l-18 -74h-635z" />
<glyph unicode="I" horiz-adv-x="827" d="M-35 0l19 76l186 33q42 8 51 38l293 1096q9 31 -31 39l-174 33l21 76h637l-21 -76l-190 -33q-22 -4 -31 -13t-14 -26l-293 -1096q-6 -15 -0.5 -24.5t26.5 -13.5l174 -35l-20 -74h-633z" />
<glyph unicode="J" horiz-adv-x="1099" d="M-10 205q0 69 38.5 114.5t102.5 45.5q53 0 85 -29.5t32 -75.5q0 -51 -32 -82t-81 -31q-4 0 -13 1.5t-13 1.5q18 -45 69 -72t125 -27q118 0 189 82.5t126 288.5l220 819q5 18 -1.5 26.5t-31.5 14.5l-180 35l20 74h643l-18 -76l-191 -33q-38 -7 -47 -37l-205 -774 q-70 -265 -203.5 -381.5t-322.5 -116.5q-135 0 -223 66t-88 166z" />
<glyph unicode="K" horiz-adv-x="1533" d="M-43 0l18 76l187 33q42 8 51 38l293 1096q9 31 -31 39l-174 33l21 76h636l-20 -76l-190 -33q-22 -4 -31.5 -13t-14.5 -26l-153 -575l694 571q21 16 21 27q0 12 -25 18l-137 33l20 74h570l-19 -74l-207 -47q-60 -14 -98 -43l-491 -389l282 -686q9 -18 19.5 -25t31.5 -10 l213 -41l-18 -76h-678l21 76l178 28q30 6 30 29q0 8 -4 19l-227 567l-207 -166l-108 -406q-6 -15 -0.5 -24.5t26.5 -13.5l174 -35l-20 -74h-633z" />
<glyph unicode="L" horiz-adv-x="1310" d="M-43 0l18 76l187 33q42 8 51 38l293 1096q9 31 -31 39l-174 33l21 76h651l-19 -76l-200 -33q-42 -7 -52 -37l-292 -1093q-9 -37 3 -52.5t50 -15.5h307q88 0 129 22t88 97l156 239h94l-137 -442h-1143z" />
<glyph unicode="M" horiz-adv-x="1929" d="M-49 0l20 74l172 32q32 6 48 22t24 48l287 1067q6 31 -29 39l-172 35l18 74h441l96 -789l31 -323h10l727 1112h457l-19 -76l-188 -33q-23 -4 -33.5 -13.5t-15.5 -25.5l-293 -1096q-9 -30 29 -38l174 -33l-19 -76h-637l21 76l186 33q38 7 47 38l291 1090h-8l-823 -1245 h-60l-110 917l-29 318h-6l-279 -1051q-8 -33 1 -48.5t40 -21.5l156 -30l-19 -76h-536z" />
<glyph unicode="N" horiz-adv-x="1521" d="M-49 0l18 74l174 32q31 6 48 22t26 48l287 1067q9 31 -29 39l-174 35l18 74h398l334 -863l77 -239h13l245 925q8 31 -1 47.5t-39 22.5l-158 31l18 76h541l-18 -74l-175 -33q-33 -6 -49 -22t-24 -48l-330 -1224h-90l-387 1001l-72 232h-12l-279 -1047q-8 -31 1.5 -47.5 t39.5 -22.5l158 -30l-18 -76h-541z" />
<glyph unicode="O" horiz-adv-x="1505" d="M129 510q0 178 64.5 344.5t174.5 290.5t265.5 199t327.5 75q237 0 376.5 -144.5t139.5 -393.5q0 -238 -109 -447t-301 -336t-420 -127q-239 0 -378.5 143.5t-139.5 395.5zM340 418q0 -181 76.5 -272t224.5 -91q111 0 210.5 53t173 143.5t126.5 203t82 239.5 q33 132 33 279q0 362 -301 362q-111 0 -210.5 -52.5t-173 -143t-126.5 -203t-82 -240.5q-33 -132 -33 -278z" />
<glyph unicode="P" horiz-adv-x="1325" d="M-45 0l20 76l187 33q40 7 49 38l291 1090q5 20 -1 29.5t-28 13.5l-172 33l18 76q135 0 331 3t251 3q230 0 361 -82.5t131 -245.5q0 -112 -47.5 -202t-132 -147t-197 -87.5t-244.5 -30.5q-126 0 -240 12l-124 -465q-9 -30 30 -38l187 -35l-19 -74h-651zM553 694 q98 -10 205 -10q205 0 314.5 107t109.5 303q0 114 -66 165.5t-217 51.5q-76 0 -182 -8z" />
<glyph unicode="Q" horiz-adv-x="1505" d="M129 510q0 178 64.5 344.5t174.5 290.5t265.5 199t327.5 75q238 0 377 -143.5t139 -394.5q0 -264 -142 -492t-366 -338q0 -64 6 -119q6 -84 44 -126t118 -42q104 0 225 121l45 -41q-177 -200 -365 -200q-128 0 -195 67.5t-67 184.5q0 48 6 94q-68 -15 -143 -15 q-234 0 -374 147.5t-140 387.5zM334 412q0 -288 180 -359l-14 8q-51 30 -80 81t-29 114q0 114 77 197.5t208 83.5q129 0 204.5 -72t84.5 -197q2 -29 2 -92q96 86 166 219t106 291q31 149 31 287q0 180 -79 271t-228 91q-111 0 -211 -52.5t-174.5 -143t-128 -203.5 t-82.5 -240q-33 -152 -33 -284zM455 246q0 -89 56.5 -141t150.5 -52h28q63 6 111 23q22 112 22 194q0 92 -43.5 140.5t-128.5 48.5q-87 0 -141.5 -62.5t-54.5 -150.5z" />
<glyph unicode="R" horiz-adv-x="1423" d="M-45 0l20 76l187 33q40 7 49 38l291 1090q5 20 -1 29.5t-28 13.5l-172 33l18 76q136 0 328 3t248 3q228 0 354.5 -82t126.5 -236q0 -152 -108 -256.5t-281 -150.5q26 -67 51 -178l74 -334q5 -22 14.5 -32.5t30.5 -14.5l207 -37l-21 -74h-405l-102 635q-49 -6 -111 -6 q-112 0 -186 12l-131 -494q-9 -30 30 -38l185 -35l-19 -74h-649zM561 719q71 -8 176 -8q202 0 315 112t113 291q0 111 -60.5 154t-207.5 43q-70 0 -180 -8z" />
<glyph unicode="S" horiz-adv-x="1251" d="M29 -25l147 537h74q0 -54 8 -152q9 -150 89.5 -226.5t223.5 -76.5q149 0 243.5 74t94.5 215q0 53 -19.5 94.5t-61.5 74t-84 54t-109 49.5q-149 61 -232.5 147.5t-83.5 213.5q0 102 40.5 186.5t109 139t156 84.5t182.5 30q229 0 340 -114l78 110h67l-137 -500h-74 q0 58 -4 156q-15 262 -264 262q-134 0 -227.5 -70.5t-93.5 -199.5q0 -52 20.5 -94.5t63 -75.5t86.5 -56.5t110 -50.5q153 -62 232 -141.5t79 -210.5q0 -148 -70.5 -254.5t-185.5 -157.5t-260 -51q-260 0 -379 146l-92 -142h-67z" />
<glyph unicode="T" horiz-adv-x="1404" d="M213 1049l102 342h1244l-80 -342h-97l-6 122q-3 85 -35.5 112.5t-121.5 27.5h-203l-311 -1164q-5 -16 0.5 -25t27.5 -13l187 -33l-19 -76h-672l21 74l205 35q42 8 51 38l311 1164h-199q-88 0 -131 -26t-96 -114l-74 -122h-104z" />
<glyph unicode="U" horiz-adv-x="1548" d="M221 315q0 89 25 181l200 747q9 31 -28 39l-174 35l20 74h635l-18 -76l-189 -33q-23 -4 -32.5 -13t-14.5 -26l-201 -749q-26 -102 -26 -179q0 -127 76.5 -184t222.5 -57q191 0 301.5 93.5t169.5 315.5l192 725q9 34 -0.5 51.5t-42.5 24.5l-149 33l18 74h531l-19 -76 l-168 -31q-33 -6 -50.5 -23t-26.5 -53l-195 -721q-36 -132 -85.5 -225.5t-124 -160t-178 -98.5t-241.5 -32q-202 0 -315 88.5t-113 255.5z" />
<glyph unicode="V" horiz-adv-x="1361" d="M184 1315l21 76h604l-21 -74l-186 -35q-23 -4 -31 -14t-6 -31l60 -686l22 -324h10l615 1006q8 13 8 24q0 21 -33 29l-147 31l18 74h506l-18 -74l-168 -43q-40 -10 -64 -47l-772 -1247h-88l-143 1265q-3 33 -33 39z" />
<glyph unicode="W" horiz-adv-x="1964" d="M182 1315l19 76h610l-20 -74l-195 -35q-31 -5 -31 -37l27 -696l8 -258h10l611 1102h98l47 -875l4 -211h10l492 922q15 26 9.5 38.5t-36.5 18.5l-145 29l20 76h506l-18 -74l-164 -39q-46 -11 -64 -49l-677 -1249h-89l-49 876l-6 242h-10l-619 -1118h-90l-71 1265 q-3 36 -37 41z" />
<glyph unicode="X" horiz-adv-x="1495" d="M-139 0l22 76l191 35q22 4 39 18l604 571l-236 557q-7 22 -30 25l-201 33l20 76h652l-21 -74l-178 -33q-41 -8 -25 -45l162 -426l451 442q27 27 -11 33l-167 29l18 74h543l-19 -74l-190 -37q-23 -4 -37 -18l-557 -525l256 -602q7 -20 29 -26l210 -33l-18 -76h-674l23 74 l186 32q31 4 31 28q0 8 -4 18l-182 473l-498 -490q-14 -12 -11.5 -21t21.5 -12l174 -28l-22 -74h-551z" />
<glyph unicode="Y" horiz-adv-x="1337" d="M176 1315l21 76h634l-20 -76l-197 -31q-35 -5 -26 -45l102 -395l49 -209h11l493 598q11 13 14 24t-4 18t-22 9l-160 31l21 76h520l-21 -74l-153 -33q-48 -8 -72 -39l-596 -700l-106 -398q-9 -30 26 -38l189 -35l-21 -74h-657l18 76l199 33q23 4 32.5 12.5t14.5 25.5 l113 424l-197 676q-9 30 -39 35z" />
<glyph unicode="Z" horiz-adv-x="1325" d="M-27 0v66l1039 1083l180 160h-461q-111 0 -158.5 -25t-105.5 -117l-125 -196h-96l131 420h1036v-70l-987 -1038l-215 -201h512q71 0 110 10.5t70 39.5t70 93l151 232h97l-146 -457h-1102z" />
<glyph unicode="[" horiz-adv-x="897" d="M53 -387l510 1976l539 -16l-15 -53l-372 -25l-459 -1784l371 -26l-15 -54z" />
<glyph unicode="\" horiz-adv-x="897" d="M375 1493h102l125 -1700h-100z" />
<glyph unicode="]" horiz-adv-x="897" d="M-160 -369l15 54l372 24l459 1784l-371 27l15 53l559 18l-510 -1976z" />
<glyph unicode="^" horiz-adv-x="1067" d="M184 924l555 643h144l209 -643h-74l-230 542l-532 -542h-72z" />
<glyph unicode="_" horiz-adv-x="1060" d="M-129 -27h1061v-84h-1061v84z" />
<glyph unicode="`" horiz-adv-x="1099" d="M674 1526l6 26h186l68 -358h-53z" />
<glyph unicode="a" d="M72 287q0 98 29 201.5t84.5 196t128.5 166t168 116.5t196 43q82 0 145 -31.5t99 -89.5l102 123h51l-100 -256l-160 -477q-27 -79 -27 -129q0 -78 74 -78q57 0 101.5 64.5t95.5 197.5l63 -19q-29 -80 -54.5 -134t-62 -102.5t-84.5 -72.5t-108 -24q-79 0 -126.5 43 t-47.5 116q0 33 8 66q-133 -236 -321 -236q-120 0 -187 85t-67 231zM252 250q0 -193 123 -193q92 0 178 120.5t172 371.5l92 276q-13 54 -52 82.5t-91 28.5q-73 0 -141.5 -50t-118 -128t-87 -171t-56.5 -181t-19 -156z" />
<glyph unicode="b" horiz-adv-x="1001" d="M80 238q0 93 37 206l276 951q6 20 2 29t-22 12l-140 16v64l338 59l56 -19l-78 -215l-72 -243l-117 -318q135 230 322 230q119 0 185.5 -82t66.5 -228q0 -105 -26.5 -210.5t-77.5 -198.5t-119 -164.5t-157.5 -113.5t-186.5 -42q-129 0 -208 71t-79 196zM236 197 q0 -152 135 -152q70 0 133.5 51.5t108 131.5t78 174.5t49.5 181.5t16 153q0 187 -125 187q-90 0 -191.5 -131t-165.5 -365q-38 -137 -38 -231z" />
<glyph unicode="c" horiz-adv-x="958" d="M80 326q0 127 45 251.5t121 219.5t182.5 154t222.5 59q115 0 191 -58.5t76 -146.5q0 -62 -38 -100.5t-96 -38.5q-50 0 -80 29.5t-30 76.5q0 52 32 86q28 28 59 28q6 0 11 -1q-28 51 -121 51q-104 0 -197 -100.5t-144.5 -245t-51.5 -283.5q0 -109 49 -170t146 -61 q190 0 342 254l63 -31q-180 -328 -459 -328q-155 0 -239 97.5t-84 257.5z" />
<glyph unicode="d" horiz-adv-x="1196" d="M72 297q0 102 28.5 206t82.5 194t125.5 160.5t163.5 111.5t190 41q115 0 192 -52l129 439q6 19 1.5 26.5t-23.5 8.5l-154 16v65l354 62l53 -19l-77 -215l-306 -1052q-24 -81 -24 -139q0 -78 70 -78q56 0 100 61.5t98 200.5l62 -17q-66 -183 -135 -259t-177 -76 q-78 0 -123 42t-45 119q0 27 9 68q-134 -240 -334 -240q-123 0 -191.5 88.5t-68.5 237.5zM252 260q0 -203 125 -203q95 0 190.5 120t163.5 358l84 286q-36 117 -156 117q-73 0 -139.5 -48.5t-114 -125t-83 -168t-53 -179t-17.5 -157.5z" />
<glyph unicode="e" horiz-adv-x="954" d="M76 315q0 132 50 260t131 223t189.5 153.5t219.5 58.5q106 0 168.5 -49.5t62.5 -129.5q0 -60 -25 -110.5t-83 -91t-104 -68t-138 -57t-132 -41t-136 -35.5q-5 -1 -7 -2q-12 -62 -12 -121q0 -112 51.5 -171.5t139.5 -59.5q103 0 187 65t161 189l61 -29 q-188 -328 -463 -328q-148 0 -234.5 90t-86.5 254zM287 496h2q88 23 162 53.5t141 72.5t105 99t38 123q0 43 -23 67.5t-65 24.5q-76 0 -149.5 -65.5t-127 -163.5t-83.5 -211z" />
<glyph unicode="f" horiz-adv-x="790" d="M-457 -326q0 58 36 97t93 39q51 0 82 -31.5t31 -77.5q0 -50 -27 -81q-26 -30 -55 -30h-4q37 -18 102 -18q93 0 161 66.5t114 238.5l266 1004l-205 22l17 66l215 16l34 131q67 251 180.5 363t293.5 112q123 0 194.5 -52t71.5 -132q0 -64 -36 -100.5t-91 -36.5 q-50 0 -82.5 29.5t-32.5 78.5q0 45 27 77t69 32l13 -2q-44 35 -138 35q-99 0 -164 -67.5t-106 -213.5q-14 -45 -37 -140t-30 -118h292l-18 -74l-299 -18l-231 -869q-40 -150 -90.5 -253t-112.5 -160.5t-129 -82t-152 -24.5q-117 0 -184.5 48t-67.5 126z" />
<glyph unicode="g" horiz-adv-x="1064" d="M-94 -303q0 58 36 95.5t95 37.5q47 0 80 -31.5t33 -77.5q0 -40 -23 -69.5t-61 -40.5q42 -39 141 -39q254 0 346 334l16 55l82 229q-130 -219 -321 -219q-122 0 -190 90t-68 236q0 102 28.5 206t82.5 194t125.5 160.5t163.5 111.5t190 41q174 0 251 -119l99 121h51 l-96 -258l-224 -766q-38 -133 -96 -230t-129.5 -152t-148 -80.5t-162.5 -25.5q-139 0 -220 53.5t-81 143.5zM252 260q0 -203 125 -203q95 0 189.5 119t164.5 359l84 288q-39 115 -153 115q-73 0 -140 -48.5t-114.5 -124.5t-83.5 -167.5t-54 -179.5t-18 -158z" />
<glyph unicode="h" horiz-adv-x="1163" d="M33 0l407 1397q6 20 1.5 28t-23.5 11l-137 16v64l335 59l56 -19l-78 -215l-80 -272l-154 -436q85 174 194 275.5t239 101.5q98 0 149 -55t51 -142q0 -81 -41 -186l-135 -351q-31 -82 -31 -129q0 -71 70 -71q54 0 102 64.5t97 195.5l63 -19q-64 -175 -133.5 -254 t-183.5 -79q-84 0 -134.5 43t-50.5 114q0 79 43 189l132 348q36 102 36 139q0 92 -100 92q-116 0 -237 -170.5t-197 -431.5l-90 -307h-170z" />
<glyph unicode="i" horiz-adv-x="731" d="M53 666q63 174 134 256t184 82q83 0 132.5 -44t49.5 -122q0 -75 -49 -195l-142 -354q-40 -106 -40 -150q0 -65 71 -65q107 0 201 262l63 -17q-62 -175 -134 -257t-185 -82q-83 0 -133.5 43.5t-50.5 121.5q0 68 51 197l139 352q43 114 43 150q0 65 -72 65 q-102 0 -200 -262zM406 1389q0 60 38.5 96.5t96.5 36.5q59 0 97 -36t38 -97t-38 -97.5t-97 -36.5q-57 0 -96 37.5t-39 96.5z" />
<glyph unicode="j" horiz-adv-x="751" d="M-322 -315q0 62 37 101.5t97 39.5q52 0 82 -28.5t30 -73.5q0 -50 -31 -81.5t-79 -31.5q39 -39 120 -39q50 0 88 13t75 46.5t67.5 97t56.5 158.5l201 748q33 125 33 199q0 75 -70 75q-117 0 -211 -262l-61 19q58 170 135 254t192 84q84 0 132.5 -48.5t48.5 -132.5 q0 -91 -41 -239l-166 -621q-124 -461 -475 -461q-113 0 -187 51t-74 132zM465 1389q0 60 38.5 96.5t96.5 36.5q59 0 97 -36t38 -97t-38 -97.5t-97 -36.5q-57 0 -96 37.5t-39 96.5z" />
<glyph unicode="k" horiz-adv-x="1085" d="M33 0l407 1397q6 20 1.5 28t-23.5 11l-137 16v64l335 59l56 -19l-78 -215l-391 -1341h-170zM410 522q-5 14 -5 27q0 21 15 38q24 27 80 27q29 0 53 -6q41 37 113 164q77 137 136 187.5t138 50.5q66 0 101.5 -36t35.5 -93q0 -55 -33.5 -88t-87.5 -33q-45 0 -74.5 28 t-29.5 72q0 37 20 64q-34 -15 -68 -56.5t-87 -130.5q-58 -98 -105 -145q103 -45 103 -174q0 -40 -9.5 -122.5t-9.5 -117.5q0 -55 20.5 -80.5t63.5 -25.5q56 0 101.5 63t97.5 201l61 -19q-67 -183 -133 -259t-180 -76q-197 0 -197 192q0 57 27 159.5t27 145.5q0 49 -27 70 q-51 -31 -113 -31q-22 0 -34 4z" />
<glyph unicode="l" horiz-adv-x="655" d="M98 150q0 60 27 155l317 1092q6 20 2.5 28t-22.5 11l-139 16v64l338 59l55 -19l-80 -215l-309 -1062q-25 -102 -25 -129q0 -37 21 -56.5t53 -19.5q58 0 103 61t98 201l63 -17q-34 -91 -62.5 -149.5t-65.5 -104t-81.5 -65.5t-103.5 -20q-83 0 -136 46.5t-53 123.5z" />
<glyph unicode="m" horiz-adv-x="1806" d="M43 662q63 176 132 256.5t181 80.5q75 0 117.5 -39.5t42.5 -113.5q0 -56 -43 -193q170 355 406 355q93 0 140.5 -48.5t47.5 -134.5q0 -48 -31 -153q171 336 402 336q96 0 149 -51.5t53 -135.5q0 -77 -43 -192l-133 -348q-30 -77 -30 -136q0 -71 65 -71q55 0 102.5 64.5 t96.5 197.5l63 -19q-64 -175 -132.5 -255t-184.5 -80q-83 0 -132.5 44t-49.5 115q0 73 45 191l131 348q35 98 35 137q0 90 -107 90q-72 0 -152 -85t-147 -218.5t-115 -292.5l-94 -311h-176l182 600q47 159 47 211q0 96 -98 96q-76 0 -157 -87.5t-146 -219.5t-113 -289 l-94 -311h-172l201 647q39 116 39 187t-66 71q-53 0 -102 -62.5t-99 -199.5z" />
<glyph unicode="n" horiz-adv-x="1255" d="M43 664q63 174 132 254.5t181 80.5q75 0 117.5 -38.5t42.5 -112.5q0 -60 -49 -205q179 367 418 367q98 0 152.5 -54t54.5 -135q0 -84 -43 -192l-136 -348q-32 -82 -32 -136q0 -71 67 -71q55 0 101 63.5t98 198.5l61 -19q-64 -176 -132 -255.5t-183 -79.5q-84 0 -133 44 t-49 115q0 69 45 189l133 352q35 89 35 139q0 40 -26 64t-83 24q-73 0 -151.5 -81.5t-146 -215.5t-118.5 -299l-96 -313h-174l203 649q39 116 39 185q0 71 -66 71q-53 0 -102 -62t-99 -198z" />
<glyph unicode="o" horiz-adv-x="1054" d="M76 301q0 131 44.5 258.5t120.5 227.5t186 161.5t232 61.5q147 0 236.5 -91t89.5 -241q0 -104 -28 -207t-81.5 -192.5t-124.5 -158.5t-163 -109t-191 -40q-146 0 -233.5 91t-87.5 239zM250 236q0 -191 151 -191q78 0 154 65.5t131 166.5t89 226t34 242q0 193 -152 193 q-103 0 -199 -110t-152 -272.5t-56 -319.5z" />
<glyph unicode="p" horiz-adv-x="1173" d="M-156 -471l19 68l151 34q33 5 43 37l285 981q39 125 39 185q0 71 -66 71q-53 0 -100.5 -61.5t-99.5 -198.5l-62 19q63 173 133.5 254t182.5 81q73 0 115 -38.5t42 -112.5q0 -29 -14 -94q68 128 151 192t189 64q119 0 185.5 -86t66.5 -236q0 -128 -44 -257t-119 -230.5 t-183 -165.5t-226 -64q-119 0 -194 72l-107 -375q-9 -31 25 -37l160 -34l-19 -68h-553zM377 176q12 -64 53 -96.5t105 -32.5q86 0 162.5 75t124.5 183.5t76 222t28 199.5q0 105 -29.5 151t-95.5 46q-93 0 -186 -123.5t-160 -354.5z" />
<glyph unicode="q" horiz-adv-x="1054" d="M72 295q0 127 47 255.5t125.5 230t191 165.5t234.5 64q154 0 243 -95l88 97h54l-88 -254l-316 -1090q-6 -15 -1.5 -24.5t24.5 -12.5l157 -34l-18 -68h-553l19 68l155 34q32 5 41 39l53 174l129 365q-137 -238 -329 -238q-117 0 -186.5 85.5t-69.5 238.5zM252 258 q0 -201 127 -201q93 0 187 121t163 359l86 294q-18 51 -57 78t-90 27q-72 0 -139 -49t-116 -125.5t-86 -168t-56 -179.5t-19 -156z" />
<glyph unicode="r" horiz-adv-x="966" d="M43 662q63 175 133 256t182 81q74 0 115 -38.5t41 -110.5q0 -65 -33 -197q41 103 68 150q56 101 119.5 154t144.5 53q68 0 108 -35.5t40 -93.5q0 -60 -36 -98t-89 -38q-51 0 -81 29t-30 76q0 46 29 78q-84 -29 -158 -160q-93 -163 -215 -559l-64 -209h-174l193 647 q41 134 41 189q0 69 -70 69q-55 0 -104 -62t-99 -198z" />
<glyph unicode="s" horiz-adv-x="882" d="M27 186q0 57 32 93t84 36q44 0 73.5 -28t29.5 -68q0 -42 -24 -71t-52 -27q21 -37 69 -57.5t107 -20.5q105 0 170.5 53t65.5 144q0 70 -43 109.5t-144 90.5q-194 94 -194 254q0 140 104 228t250 88q122 0 203.5 -52t81.5 -139q0 -56 -33.5 -91.5t-85.5 -35.5 q-42 0 -70 26.5t-28 67.5q0 42 23 73.5t48 29.5q-41 49 -143 49q-94 0 -146.5 -49t-52.5 -119q0 -61 39.5 -100t138.5 -88q96 -49 149.5 -112t53.5 -159q0 -155 -110.5 -247.5t-274.5 -92.5q-133 0 -227 61t-94 154z" />
<glyph unicode="t" horiz-adv-x="788" d="M121 160q0 51 18 116l176 605l-184 22l16 66l199 16l86 297h172l-88 -301h301l-20 -74l-308 -16l-190 -655q-12 -46 -12 -82q0 -93 94 -93q68 0 123.5 65.5t111.5 209.5l62 -19q-68 -183 -144 -260t-202 -77q-97 0 -154 45.5t-57 134.5z" />
<glyph unicode="u" horiz-adv-x="1249" d="M39 664q31 86 60.5 144.5t67 103.5t84 66t105.5 21q77 0 126.5 -43t49.5 -116q0 -66 -45 -189l-129 -348q-34 -91 -34 -137q0 -45 27 -69.5t79 -24.5q106 0 214.5 156.5t186.5 402.5l111 350h174l-219 -696q-27 -88 -27 -133q0 -38 19.5 -59t52.5 -21q56 0 99.5 61.5 t97.5 200.5l61 -19q-61 -180 -131.5 -256.5t-181.5 -76.5q-71 0 -117.5 39t-46.5 112q0 61 45 184q-164 -344 -412 -344q-95 0 -147.5 53t-52.5 136t41 192l129 336q41 109 41 152q0 63 -68 63q-53 0 -101 -63t-98 -197z" />
<glyph unicode="v" horiz-adv-x="1013" d="M74 840q0 71 36.5 116t104.5 45q39 0 73.5 -14t55.5 -31t46.5 -31t49.5 -14q33 0 52.5 17.5t39.5 58.5q10 4 27 4q39 0 39 -37q0 -9 -3 -19t-9.5 -21.5t-11.5 -19t-15 -21t-14 -19.5q-244 -325 -244 -561q0 -93 37.5 -142t105.5 -49q72 0 150 59.5t139 149.5t101 204.5 t40 217.5q0 61 -10 86q-28 -28 -69 -28q-44 0 -73.5 27.5t-29.5 70.5q0 53 34.5 87t88.5 34q71 0 111.5 -52t40.5 -149q0 -95 -26 -197t-70 -192t-104 -171.5t-126 -140.5t-139 -93.5t-140 -34.5q-103 0 -168 64.5t-65 176.5q0 47 8.5 93.5t20.5 85t36 84t42.5 76t52 76.5 t54 71t59.5 73t57 70q-51 -39 -117 -39q-30 0 -68 10t-63 10q-74 0 -74 -61q0 -23 2 -31l-49 -10q-16 58 -16 111z" />
<glyph unicode="w" horiz-adv-x="1488" d="M74 840q0 71 36.5 116t104.5 45q39 0 73.5 -14t55.5 -31t46.5 -31t49.5 -14q33 0 52.5 17.5t39.5 58.5q10 4 27 4q39 0 39 -37q0 -9 -3 -19t-9.5 -21.5t-11.5 -19t-15 -21t-14 -19.5q-244 -325 -244 -561q0 -102 35 -152.5t98 -50.5q129 0 232 219q1 137 60 337.5 t136 338.5q30 12 66 12q80 0 80 -75q0 -129 -166 -461q-17 -93 -17 -146q0 -98 36 -156.5t106 -58.5q89 0 178.5 102.5t145 259t55.5 308.5q0 29 -3 47q-30 -35 -77 -35t-77 30t-30 75q0 51 35.5 87t87.5 36q150 0 150 -226q0 -175 -74 -362.5t-196 -314.5t-247 -127 q-97 0 -159 58t-82 165q-127 -223 -318 -223q-105 0 -166 66.5t-61 174.5q0 47 8.5 93.5t20.5 85t36 84t42.5 76t52 76.5t54 71t59.5 73t57 70q-51 -39 -117 -39q-30 0 -68 10t-63 10q-74 0 -74 -61q0 -23 2 -31l-49 -10q-16 58 -16 111z" />
<glyph unicode="x" horiz-adv-x="1110" d="M-18 117q0 133 155 241l39 -26q-63 -99 -63 -182q0 -84 73 -84q47 0 98.5 49.5t96 135.5t73.5 219.5t29 283.5q0 85 -30 121t-91 36q-56 0 -102 -56t-90 -165l-70 23q55 142 128.5 216.5t183.5 74.5q109 0 162 -60t53 -164q0 -53 -15 -149q54 185 143 277.5t185 92.5 q70 0 107.5 -35t37.5 -94q0 -112 -141 -227l-35 29q62 103 62 170q0 33 -17.5 52t-50.5 19q-43 0 -93.5 -50t-95 -134.5t-74.5 -214.5t-30 -272q0 -172 129 -172q126 0 228 262l61 -19q-59 -165 -142 -250t-200 -85q-221 0 -221 227q0 50 10 125q-55 -176 -145 -265.5 t-197 -89.5q-71 0 -111 37t-40 103z" />
<glyph unicode="y" horiz-adv-x="1132" d="M-43 -309q0 60 35 99.5t94 39.5q47 0 81 -31.5t34 -77.5q0 -48 -29 -79q-26 -29 -55 -29h-4q47 -41 157 -41q128 0 219.5 81.5t145.5 262.5l20 72l111 291q-160 -306 -393 -306q-94 0 -148.5 53.5t-54.5 135.5q0 84 43 194l129 330q43 114 43 156q0 63 -68 63 q-52 0 -99 -63t-97 -197l-64 19q63 174 133.5 254.5t184.5 80.5q77 0 126.5 -43t49.5 -116q0 -78 -45 -193l-131 -344q-35 -98 -35 -137q0 -94 106 -94q73 0 149 75t139.5 200.5t107.5 283.5l102 350h170l-297 -1020q-36 -124 -95 -215t-132.5 -143.5t-153 -77.5t-168.5 -25 q-140 0 -225.5 53t-85.5 138z" />
<glyph unicode="z" horiz-adv-x="956" d="M-6 68q0 65 59 139q128 163 404 334q246 152 332 217q19 14 36 28l-8 11q-61 -43 -162 -43q-58 0 -159.5 34.5t-139.5 34.5q-94 0 -94 -92q0 -3 6 -51l-55 -14q-27 62 -27 131q0 90 46.5 150.5t148.5 60.5q50 0 106 -25t96.5 -55t90 -55t88.5 -25q35 0 52 13t17 46 q0 35 -22 103q31 16 65 18q2 0 4 1q30 0 54 -20q26 -21 26 -63q0 -77 -63 -158q-126 -163 -399 -321q-257 -153 -375 -260l6 -8q68 45 156 45q64 0 197.5 -41t185.5 -41q64 0 87 24t23 80q0 49 -10 78l55 18q35 -79 35 -145q0 -117 -63 -180.5t-170 -63.5q-52 0 -101.5 19 t-88.5 45.5t-75.5 53.5t-78.5 46t-84 19q-72 0 -72 -62q0 -50 18 -102q-31 -19 -60 -19q-20 -1 -40 9q-47 22 -47 86z" />
<glyph unicode="{" horiz-adv-x="897" d="M78 543l31 114q96 2 156 12.5t106.5 36t72 69.5t41.5 114q7 36 23 194t31 220q32 135 130 199.5t267 64.5h151l-14 -54l-149 -10q-99 -7 -144.5 -54.5t-72.5 -160.5q-12 -51 -39 -201t-35 -186q-16 -62 -43.5 -108.5t-62.5 -77t-83 -51t-97.5 -30.5t-113.5 -16l-8 -38 q267 -26 267 -205q0 -66 -69 -276.5t-69 -280.5q0 -57 25.5 -88t91.5 -35l176 -10l-14 -54h-178q-137 0 -206 54t-69 153q0 66 42.5 170t85 209t42.5 174q0 81 -58 113.5t-214 38.5z" />
<glyph unicode="|" horiz-adv-x="585" d="M59 -205l441 1698h96l-440 -1698h-97z" />
<glyph unicode="}" horiz-adv-x="897" d="M-160 -369l15 54l149 10q99 7 144.5 54.5t72.5 160.5q12 51 39 201t35 186q16 62 43.5 108.5t62 77t82.5 51t97.5 30.5t113.5 16l8 38q-129 13 -197.5 61.5t-68.5 143.5q0 66 68.5 276.5t68.5 280.5q0 57 -25 88t-91 35l-176 10l14 54h178q137 0 206 -54t69 -153 q0 -66 -42.5 -170t-85 -209t-42.5 -174q0 -81 58 -113.5t214 -38.5l-31 -114q-76 -2 -128.5 -9t-96.5 -22t-72 -41t-48 -65t-32 -95q-7 -36 -22.5 -193.5t-30.5 -219.5q-32 -135 -130 -200t-267 -65h-152z" />
<glyph unicode="~" horiz-adv-x="1093" d="M115 358q-3 133 57 200t168 67q57 0 124 -26t117 -57t106.5 -57t94.5 -26q64 0 96.5 33t41.5 108h61q-8 -102 -65 -167.5t-160 -65.5q-61 0 -128.5 26t-115.5 56.5t-103.5 56.5t-95.5 26q-65 0 -98 -42t-41 -132h-59z" />
<glyph unicode="&#xa1;" horiz-adv-x="671" d="M-39 -319q3 57 26 113t60 119.5t79.5 139.5t94.5 205.5t94 286.5h64q-56 -213 -79.5 -355.5t-29.5 -258t-10 -144.5q-4 -46 -14 -81.5t-30 -70t-57 -53t-89 -18.5q-57 0 -84.5 31.5t-24.5 85.5zM295 866q0 62 39 98.5t96 36.5q52 0 88.5 -32.5t36.5 -87.5 q0 -63 -41 -99.5t-98 -36.5q-52 0 -86.5 31.5t-34.5 89.5z" />
<glyph unicode="&#xa2;" horiz-adv-x="1228" d="M131 -309l174 336q-137 92 -137 307q0 120 50.5 238.5t132.5 207.5t191.5 144t221.5 55l27 -2l137 278h90l-154 -288q84 -22 135.5 -76t51.5 -121q0 -63 -36 -101t-93 -38q-49 0 -80 29t-31 75q0 51 33.5 83t73.5 30q-24 41 -93 53l-389 -768q51 -39 129 -39 q200 0 359 215l59 -30q-87 -145 -200.5 -226.5t-268.5 -81.5q-76 0 -143 23l-150 -303h-90zM348 342q0 -101 43 -162l369 727q-118 -3 -214 -86t-147 -211t-51 -268z" />
<glyph unicode="&#xa3;" horiz-adv-x="1228" d="M33 0v117q71 8 133 26.5t117.5 51t95.5 76.5t63 106t23 137q0 14 -1 44t-1 44l-252 25l12 57l232 18q-11 112 -11 181q0 187 127.5 307.5t331.5 120.5q144 0 227.5 -65.5t83.5 -155.5q0 -69 -38.5 -109.5t-98.5 -40.5q-49 0 -79.5 31.5t-30.5 79.5q0 50 33 82t77 32 q-53 70 -184 70q-124 0 -192 -88.5t-68 -231.5q0 -31 1 -67t2.5 -80t2.5 -68h313l-16 -71l-299 -17q-9 -155 -83.5 -272.5t-211.5 -185.5h451q53 0 80.5 16t56.5 66l67 112h64l-129 -348h-899z" />
<glyph unicode="&#xa4;" horiz-adv-x="1228" d="M106 98l187 183q-66 92 -66 213q0 119 66 211l-187 182l62 61l178 -184q92 82 221 82t221 -82l179 184l61 -61l-186 -180q67 -89 67 -213q0 -125 -69 -215l188 -181l-61 -61l-179 186q-92 -82 -221 -82t-221 82l-178 -186zM309 494q0 -114 73 -192.5t185 -78.5 q111 0 185.5 78.5t74.5 192.5t-74.5 193t-185.5 79q-112 0 -185 -79t-73 -193z" />
<glyph unicode="&#xa5;" horiz-adv-x="1228" d="M133 532l23 78h362l-194 523q-8 20 -18 29.5t-32 13.5l-135 32l21 74h626l-20 -76l-193 -28q-42 -6 -28 -45l110 -332l54 -172h10l446 483q50 53 -14 66l-154 30l21 74h485l-20 -74l-117 -30q-29 -7 -48.5 -20.5t-47.5 -41.5l-479 -506h358l-23 -78h-395l-106 -385 q-9 -30 30 -38l183 -33l-21 -76h-661l20 74l201 35q40 7 49 38l104 385h-397z" />
<glyph unicode="&#xa6;" horiz-adv-x="585" d="M59 -205l185 707h96l-184 -707h-97zM315 788l185 705h96l-184 -705h-97z" />
<glyph unicode="&#xa7;" horiz-adv-x="1239" d="M23 -150q0 57 36.5 97.5t90.5 40.5q50 0 83 -32.5t33 -80.5q0 -50 -28.5 -80t-65.5 -28q50 -80 203 -80q128 0 206 56.5t78 154.5q0 52 -25 95t-65 74t-88.5 60t-97 59.5t-88.5 65t-65 84.5t-25 110q0 103 61 193t158 147l31 -36q-56 -41 -91.5 -94.5t-35.5 -110.5 q0 -50 26.5 -92t69 -73.5t93.5 -61t102.5 -63t94 -71.5t69 -94t26.5 -123q0 -107 -59 -190t-157 -125.5t-218 -42.5q-144 0 -248 66.5t-104 174.5zM434 1061q0 108 59.5 191t158 125t218.5 42q144 0 247.5 -66t103.5 -175q0 -56 -36.5 -96t-90.5 -40q-51 0 -84 32t-33 81 t29 79t67 30q-51 79 -203 79q-129 0 -206.5 -56t-77.5 -154q0 -52 25 -95.5t65 -75t88.5 -60.5t97 -60t88.5 -65.5t65 -84.5t25 -110q0 -103 -62 -193t-159 -147l-28 39q56 40 91.5 93t35.5 111q0 50 -26.5 91.5t-69.5 72.5t-94.5 61t-103 63t-94.5 71t-69.5 94t-26.5 123z " />
<glyph unicode="&#xa8;" horiz-adv-x="1099" d="M672 1348q0 45 30.5 76.5t73.5 31.5t74 -31t31 -75q0 -43 -31.5 -74t-75.5 -31q-43 0 -72.5 30t-29.5 73zM1065 1348q0 46 31 77t75 31t74.5 -31t30.5 -75q0 -43 -32 -74t-77 -31q-43 0 -72.5 30t-29.5 73z" />
<glyph unicode="&#xa9;" horiz-adv-x="1759" d="M121 489q0 149 57.5 284t155 231.5t231.5 153t281 56.5t281 -56.5t231.5 -153t155 -231.5t57.5 -284q0 -199 -97.5 -365.5t-264 -261.5t-363.5 -95t-363.5 95t-264 261.5t-97.5 365.5zM209 492q0 -131 51 -250t136.5 -205t203.5 -136.5t246 -50.5q129 0 247 50.5 t203.5 136.5t136 205t50.5 250q0 130 -50.5 248t-136 203t-203.5 135t-247 50q-128 0 -246 -50t-203.5 -135t-136.5 -203t-51 -248zM455 492q0 189 116 303t285 114q154 0 238 -100l24 94h39v-311h-59l-23 78q-22 84 -71 128t-144 44q-110 0 -171.5 -95t-61.5 -253 t61 -252.5t172 -94.5q93 0 141.5 41.5t71.5 124.5l25 82h59v-307h-39l-26 96q-87 -100 -234 -100q-173 0 -288 109t-115 299z" />
<glyph unicode="&#xaa;" horiz-adv-x="876" d="M127 328l20 82h607l-21 -82h-606zM244 918q0 119 55.5 234.5t157.5 193t221 77.5q122 0 180 -86l76 88h41l-72 -182l-110 -330q-21 -69 -21 -92q0 -53 51 -53q39 0 70 44t68 136l43 -14q-39 -116 -88.5 -176t-135.5 -60q-57 0 -92 31.5t-35 85.5q0 11 4 43 q-87 -166 -225 -166q-87 0 -137.5 61.5t-50.5 164.5zM389 885q0 -129 82 -129q62 0 118 78.5t113 246.5l72 217q-7 34 -34 53t-64 19q-61 0 -117.5 -54t-92 -132t-56.5 -159t-21 -140z" />
<glyph unicode="&#xab;" horiz-adv-x="1120" d="M80 475l18 68l490 387l37 -39l-379 -393l209 -375l-45 -33zM489 475l19 68l489 387l37 -39l-379 -393l209 -375l-45 -33z" />
<glyph unicode="&#xac;" horiz-adv-x="1230" d="M145 604l23 92h897l-109 -407h-90l84 315h-805z" />
<glyph unicode="&#xad;" horiz-adv-x="698" d="M66 459l30 102h506l-27 -102h-509z" />
<glyph unicode="&#xae;" horiz-adv-x="1759" d="M121 489q0 149 57.5 284t155 231.5t231.5 153t281 56.5t281 -56.5t231.5 -153t155 -231.5t57.5 -284q0 -199 -97.5 -365.5t-264 -261.5t-363.5 -95t-363.5 95t-264 261.5t-97.5 365.5zM209 492q0 -131 51 -249.5t136.5 -204t203.5 -135.5t246 -50q172 0 319 85t232.5 232 t85.5 322q0 130 -50.5 248t-136 203t-203.5 135t-247 50q-128 0 -246 -50t-203.5 -135t-136.5 -203t-51 -248zM481 102v43l97 23q22 3 22 27v598q0 23 -22 28l-97 21v47h49q59 0 165.5 2t142.5 2q151 0 234 -56.5t83 -162.5q0 -149 -172 -193q18 -26 39 -73l92 -199 q11 -23 19.5 -31t27.5 -12l64 -21v-43h-224l-145 349h-29q-46 0 -73 2v-258q0 -25 20 -27l107 -23v-43h-400zM754 512q35 -2 80 -2q170 0 170 160q0 83 -40.5 121t-125.5 38q-34 0 -84 -4v-313z" />
<glyph unicode="&#xaf;" horiz-adv-x="1099" d="M676 1325l22 74q90 -2 283 -2q195 0 291 2l-23 -74q-282 6 -284 6q-7 0 -289 -6z" />
<glyph unicode="&#xb0;" horiz-adv-x="929" d="M319 1077q0 142 97.5 237t240.5 95q145 0 242.5 -95t97.5 -237t-97.5 -238t-242.5 -96q-143 0 -240.5 96t-97.5 238zM406 1077q0 -120 72.5 -192t178.5 -72q107 0 180.5 72.5t73.5 191.5t-73.5 189.5t-180.5 70.5t-179 -70.5t-72 -189.5z" />
<glyph unicode="&#xb1;" horiz-adv-x="1126" d="M-6 0l24 94h392l98 371h-399l22 94h401l107 399h94l-106 -399h401l-22 -94h-404l-98 -371h411l-24 -94h-897z" />
<glyph unicode="&#xb2;" horiz-adv-x="712" d="M313 1083q122 77 340 248q181 138 181 283q0 112 -140 112q-54 0 -102 -24t-70 -60l21 5q31 0 49 -18.5t18 -49.5t-20.5 -50.5t-54.5 -19.5q-36 0 -59 23.5t-23 62.5q0 69 74 121.5t182 52.5q124 0 197 -46t73 -132t-67 -152t-212 -153q-92 -56 -241 -147h299 q29 0 44 8.5t29 30.5l37 51h43l-75 -205h-521z" />
<glyph unicode="&#xb3;" horiz-adv-x="708" d="M317 1141q0 35 24.5 58.5t59.5 23.5q34 0 54 -21t20 -51t-19.5 -50t-43.5 -20q38 -30 112 -30q115 0 184.5 77t69.5 172q0 107 -106 107q-46 0 -90 -21.5t-64 -21.5q-21 0 -32 14t-9 35q63 23 162 29q182 74 182 192q0 42 -33.5 67t-95.5 25q-101 0 -153 -55 q28 0 47.5 -18t19.5 -47q0 -30 -21 -50t-55 -20t-55.5 20.5t-21.5 55.5q0 65 74.5 111t183.5 46q116 0 184 -38.5t68 -100.5q0 -31 -14.5 -56.5t-34.5 -42t-56 -33t-63 -25t-72.5 -22t-67.5 -21.5q50 8 82 8q81 0 135 -40.5t54 -115.5q0 -78 -56 -142t-144.5 -98t-188.5 -34 q-102 0 -161 37.5t-59 95.5z" />
<glyph unicode="&#xb4;" horiz-adv-x="1099" d="M868 1194l254 358h209l-6 -26l-393 -332h-64z" />
<glyph unicode="&#xb5;" horiz-adv-x="1267" d="M-55 -471l374 1313q6 19 1.5 27.5t-21.5 13.5l-131 32l20 68h357l-56 -172l-149 -524q-18 -65 -18 -113q0 -57 32 -79.5t95 -22.5q98 0 205 157.5t184 401.5l110 350h174l-219 -696q-26 -84 -26 -133q0 -38 19 -59t52 -21q55 0 99 62t96 200l63 -19 q-63 -180 -132.5 -256.5t-180.5 -76.5q-73 0 -118.5 39t-45.5 112q0 53 39 172q-161 -332 -377 -332q-115 0 -151 80q-1 -7 -9.5 -54.5t-11 -61.5t-10.5 -56.5t-13.5 -66.5t-14 -62.5t-18 -74.5t-20.5 -74l-20 -74h-178z" />
<glyph unicode="&#xb6;" horiz-adv-x="1257" d="M186 805q0 123 44.5 231t125 187t200 124.5t261.5 45.5q45 0 135 -2l-250 -875l-253 -885h-84l243 852q-41 -10 -102 -10q-138 0 -229 89.5t-91 242.5zM633 -369l504 1760h344l-21 -74l-231 -39q-40 -8 -49 -37l-463 -1610h-84z" />
<glyph unicode="&#xb7;" horiz-adv-x="620" d="M180 504q0 66 44 105.5t104 39.5q56 0 93.5 -35.5t37.5 -95.5q0 -65 -44 -105t-104 -40q-54 0 -92.5 36.5t-38.5 94.5z" />
<glyph unicode="&#xb8;" horiz-adv-x="970" d="M63 -449l41 48q61 -35 123 -35q70 0 124.5 46.5t54.5 119.5q0 37 -20 56t-52 19t-62 -12l-32 31l108 170h49l-73 -144q44 13 82 13q65 0 106 -32.5t41 -90.5q0 -72 -47 -127.5t-118 -83t-150 -27.5q-106 0 -175 49z" />
<glyph unicode="&#xb9;" horiz-adv-x="612" d="M309 1024l10 37l125 20q21 3 27 23l143 502q9 34 -1.5 47.5t-57.5 17.5l-72 8l9 33l114 8q67 5 98 13t52 28h43l-47 -153l-146 -504q-6 -20 17 -23l118 -18l-8 -39h-424z" />
<glyph unicode="&#xba;" horiz-adv-x="784" d="M121 328l20 82h590l-20 -82h-590zM252 928q0 92 32 181.5t87 159t134.5 112t168.5 42.5q107 0 172 -65t65 -174q0 -122 -53.5 -234.5t-152 -185t-216.5 -72.5q-107 0 -172 65t-65 171zM393 870q0 -127 101 -127q70 0 135.5 82t103 198.5t37.5 221.5q0 127 -100 127 q-70 0 -136 -82.5t-103.5 -199t-37.5 -220.5z" />
<glyph unicode="&#xbb;" horiz-adv-x="1120" d="M53 129l379 393l-209 375l45 33l330 -385l-18 -68l-490 -387zM463 129l379 393l-209 375l45 33l330 -385l-19 -68l-489 -387z" />
<glyph unicode="&#xbc;" horiz-adv-x="1884" d="M254 37l704 670l656 706l63 -63l-700 -666l-660 -711zM256 662l10 36l125 21q22 3 27 22l143 502q10 34 -1 48t-58 18l-72 8l8 33l115 8q67 5 97.5 13t51.5 28h43l-47 -154l-145 -504q-5 -19 16 -22l119 -19l-8 -38h-424zM1057 59q122 77 340 248q180 138 180 283 q0 112 -139 112q-54 0 -102 -24t-70 -60l20 5q31 0 49.5 -18.5t18.5 -49.5t-21 -50.5t-55 -19.5q-36 0 -59 23.5t-23 62.5q0 69 74 121.5t182 52.5q124 0 197 -46t73 -132q0 -45 -18.5 -85t-59.5 -78t-85 -68.5t-115 -73.5q-17 -10 -103 -62.5t-139 -84.5h299q29 0 44.5 8.5 t29.5 30.5l37 51h43l-76 -205h-520z" />
<glyph unicode="&#xbd;" horiz-adv-x="1841" d="M254 37l704 670l656 706l63 -63l-700 -666l-660 -711zM256 662l10 36l125 21q22 3 27 22l143 502q10 34 -1 48t-58 18l-72 8l8 33l115 8q67 5 97.5 13t51.5 28h43l-47 -154l-145 -504q-5 -19 16 -22l119 -19l-8 -38h-424zM981 256l485 473h117l-133 -465h37 q29 0 43.5 9.5t34.5 39.5q28 41 30 47h39l-51 -137h-145l-41 -143q-6 -18 14 -23l92 -20l-8 -37h-369l13 39l98 18q20 3 25 21l43 145h-322zM1057 272l260 -6l78 269l26 88z" />
<glyph unicode="&#xbe;" horiz-adv-x="1873" d="M246 778q0 35 24.5 58.5t59.5 23.5q34 0 53.5 -20.5t19.5 -51.5q0 -30 -19.5 -49.5t-43.5 -19.5q40 -31 113 -31q114 0 184 77t70 173q0 106 -107 106q-46 0 -90 -21.5t-64 -21.5q-21 0 -31.5 14.5t-8.5 35.5q60 22 161 28q183 74 183 193q0 42 -33.5 67t-95.5 25 q-102 0 -154 -55q28 0 48 -18.5t20 -47.5q0 -30 -20.5 -49.5t-55.5 -19.5q-34 0 -56 20t-22 55q0 65 74.5 111.5t183.5 46.5q116 0 184 -38.5t68 -100.5q0 -27 -9.5 -49t-29 -39.5t-40 -30.5t-52.5 -25t-56.5 -20t-61.5 -19t-58 -18q50 8 82 8q81 0 134.5 -40t53.5 -115 q0 -78 -56 -142t-144.5 -98.5t-188.5 -34.5q-102 0 -160.5 37t-58.5 96zM287 37l704 670l656 706l63 -63l-700 -666l-660 -711zM1014 256l485 473h117l-133 -465h37q29 0 43 9.5t34 39.5q29 41 31 47h39l-51 -137h-146l-40 -143q-6 -18 14 -23l92 -20l-8 -37h-369l12 39 l99 18q19 3 24 21l43 145h-321zM1090 272l260 -6l77 269l27 88z" />
<glyph unicode="&#xbf;" horiz-adv-x="1138" d="M20 -98q0 198 131.5 302.5t348.5 104.5q69 0 147 -16l82 248h78l-64 -312l-81 -16q-77 29 -156 29q-123 0 -209 -106.5t-86 -268.5q0 -107 71.5 -170.5t202.5 -63.5q92 0 170 34.5t121 84.5q-43 5 -70.5 34.5t-27.5 72.5q0 49 34 80.5t87 31.5q52 0 86.5 -33.5 t34.5 -89.5q0 -111 -127.5 -199.5t-319.5 -88.5q-69 0 -133.5 12.5t-123 40t-102 67t-69 96.5t-25.5 126zM686 862q0 62 39 98.5t96 36.5q52 0 88.5 -32.5t36.5 -87.5q0 -63 -41 -99.5t-98 -36.5q-52 0 -86.5 31.5t-34.5 89.5z" />
<glyph unicode="&#xc0;" horiz-adv-x="1353" d="M-166 0l21 74l157 41q47 10 74 53l649 1030l121 207h102l129 -1255q2 -19 8 -27t27 -12l150 -35l-21 -76h-606l19 76l180 35q22 5 30 13.5t7 27.5l-21 284h-502l-163 -264q-14 -25 -10 -38t30 -19l152 -39l-19 -76h-514zM412 522h444l-27 373l-10 264h-12zM778 1751l4 29 h181l59 -256h-57z" />
<glyph unicode="&#xc1;" horiz-adv-x="1353" d="M-166 0l21 74l157 41q47 10 74 53l649 1030l121 207h102l129 -1255q2 -19 8 -27t27 -12l150 -35l-21 -76h-606l19 76l180 35q22 5 30 13.5t7 27.5l-21 284h-502l-163 -264q-14 -25 -10 -38t30 -19l152 -39l-19 -76h-514zM412 522h444l-27 373l-10 264h-12zM764 1524 l219 256h217l-8 -29l-361 -227h-67z" />
<glyph unicode="&#xc2;" horiz-adv-x="1353" d="M-166 0l21 74l157 41q47 10 74 53l649 1030l121 207h102l129 -1255q2 -19 8 -27t27 -12l150 -35l-21 -76h-606l19 76l180 35q22 5 30 13.5t7 27.5l-21 284h-502l-163 -264q-14 -25 -10 -38t30 -19l152 -39l-19 -76h-514zM412 522h444l-27 373l-10 264h-12zM545 1524 l321 256h219l150 -256h-76l-237 184l-299 -184h-78z" />
<glyph unicode="&#xc3;" horiz-adv-x="1353" d="M-166 0l21 74l157 41q47 10 74 53l649 1030l121 207h102l129 -1255q2 -19 8 -27t27 -12l150 -35l-21 -76h-606l19 76l180 35q22 5 30 13.5t7 27.5l-21 284h-502l-163 -264q-14 -25 -10 -38t30 -19l152 -39l-19 -76h-514zM412 522h444l-27 373l-10 264h-12zM641 1610 q0 74 49.5 127t132.5 53q42 0 83.5 -19.5t69.5 -43t64.5 -43t69.5 -19.5q43 0 69.5 26.5t45.5 86.5l45 -2q-21 -105 -74 -170.5t-145 -65.5q-40 0 -80.5 20t-69 44.5t-65.5 44.5t-70 20q-32 0 -51 -23t-19 -57q0 -25 6 -49l-45 -16q-16 40 -16 86z" />
<glyph unicode="&#xc4;" horiz-adv-x="1353" d="M-166 0l21 74l157 41q47 10 74 53l649 1030l121 207h102l129 -1255q2 -19 8 -27t27 -12l150 -35l-21 -76h-606l19 76l180 35q22 5 30 13.5t7 27.5l-21 284h-502l-163 -264q-14 -25 -10 -38t30 -19l152 -39l-19 -76h-514zM412 522h444l-27 373l-10 264h-12zM621 1628 q0 44 30.5 75.5t73.5 31.5q45 0 75.5 -31t30.5 -76q0 -43 -30.5 -73.5t-75.5 -30.5q-43 0 -73.5 30.5t-30.5 73.5zM1042 1628q0 44 31 75.5t74 31.5q44 0 74 -31t30 -76q0 -43 -30 -73.5t-74 -30.5q-43 0 -74 30.5t-31 73.5z" />
<glyph unicode="&#xc5;" horiz-adv-x="1353" d="M-166 0l21 74l157 41q47 10 74 53l649 1030l121 207h102l129 -1255q2 -19 8 -27t27 -12l150 -35l-21 -76h-606l19 76l180 35q22 5 30 13.5t7 27.5l-21 284h-502l-163 -264q-14 -25 -10 -38t30 -19l152 -39l-19 -76h-514zM412 522h444l-27 373l-10 264h-12zM727 1657 q0 98 66 165t168 68q87 0 144 -50t58 -132q0 -97 -67 -165t-168 -68q-88 0 -144.5 50t-56.5 132zM807 1657q0 -61 30.5 -97t88.5 -36q75 0 115 52.5t40 131.5q0 61 -30 97t-88 36q-74 0 -115 -52.5t-41 -131.5z" />
<glyph unicode="&#xc6;" horiz-adv-x="1990" d="M-227 0l20 74l150 41q51 14 86 55l942 1051q18 22 14.5 37t-27.5 20l-186 37l21 76h1237l-68 -342h-96l-21 131q-12 82 -39 104.5t-114 22.5h-146q-90 0 -196 -4l-148 -549h187q56 0 85 16t64 72l96 153h70l-154 -577h-69l-8 160q-4 57 -26.5 77.5t-74.5 20.5h-190 l-140 -524q-10 -37 2 -52.5t50 -15.5h313q87 0 126.5 21.5t82.5 89.5l143 219h105l-131 -414h-1145l18 76l189 33q38 7 47 38l86 326h-514l-269 -305q-38 -44 13 -53l161 -39l-20 -76h-526zM487 557h463l197 737h-12z" />
<glyph unicode="&#xc7;" horiz-adv-x="1421" d="M127 500q0 181 65.5 349.5t176.5 294t268 200.5t330 75q246 0 368 -145l90 137h70l-152 -555h-90q11 94 11 154q0 153 -71.5 239t-209.5 86q-120 0 -224 -53.5t-179 -145t-127 -203t-82 -239.5q-31 -143 -31 -268q0 -182 76.5 -276.5t228.5 -94.5q73 0 141 25.5t122 67 t103 101t86 122t70 135.5h93l-140 -526h-69l-7 135q-162 -144 -399 -144q-43 0 -63 2l-64 -123q44 13 82 13q65 0 106.5 -32.5t41.5 -90.5q0 -72 -47.5 -127.5t-118.5 -83t-150 -27.5q-105 0 -174 49l41 48q61 -35 123 -35q70 0 124 46.5t54 119.5q0 37 -20 56t-52 19 q-31 0 -61 -12l-33 31l101 158q-186 32 -297 167.5t-111 350.5z" />
<glyph unicode="&#xc8;" horiz-adv-x="1359" d="M-43 0l18 76l187 33q42 8 51 38l293 1096q9 31 -31 39l-172 33l19 76h1077l-68 -342h-96l-21 131q-12 82 -39 104.5t-114 22.5h-146q-90 0 -196 -4l-148 -549h187q56 0 82.5 15.5t62.5 72.5l101 153h69l-153 -577h-70l-8 160q-4 57 -26.5 77.5t-76.5 20.5h-188l-141 -524 q-9 -37 3 -52.5t50 -15.5h313q87 0 126.5 21.5t82.5 89.5l143 219h105l-131 -414h-1145zM788 1751l5 29h180l59 -256h-57z" />
<glyph unicode="&#xc9;" horiz-adv-x="1359" d="M-43 0l18 76l187 33q42 8 51 38l293 1096q9 31 -31 39l-172 33l19 76h1077l-68 -342h-96l-21 131q-12 82 -39 104.5t-114 22.5h-146q-90 0 -196 -4l-148 -549h187q56 0 82.5 15.5t62.5 72.5l101 153h69l-153 -577h-70l-8 160q-4 57 -26.5 77.5t-76.5 20.5h-188l-141 -524 q-9 -37 3 -52.5t50 -15.5h313q87 0 126.5 21.5t82.5 89.5l143 219h105l-131 -414h-1145zM860 1524l219 256h217l-8 -29l-360 -227h-68z" />
<glyph unicode="&#xca;" horiz-adv-x="1359" d="M-43 0l18 76l187 33q42 8 51 38l293 1096q9 31 -31 39l-172 33l19 76h1077l-68 -342h-96l-21 131q-12 82 -39 104.5t-114 22.5h-146q-90 0 -196 -4l-148 -549h187q56 0 82.5 15.5t62.5 72.5l101 153h69l-153 -577h-70l-8 160q-4 57 -26.5 77.5t-76.5 20.5h-188l-141 -524 q-9 -37 3 -52.5t50 -15.5h313q87 0 126.5 21.5t82.5 89.5l143 219h105l-131 -414h-1145zM582 1524l321 256h219l150 -256h-76l-238 184l-299 -184h-77z" />
<glyph unicode="&#xcb;" horiz-adv-x="1359" d="M-43 0l18 76l187 33q42 8 51 38l293 1096q9 31 -31 39l-172 33l19 76h1077l-68 -342h-96l-21 131q-12 82 -39 104.5t-114 22.5h-146q-90 0 -196 -4l-148 -549h187q56 0 82.5 15.5t62.5 72.5l101 153h69l-153 -577h-70l-8 160q-4 57 -26.5 77.5t-76.5 20.5h-188l-141 -524 q-9 -37 3 -52.5t50 -15.5h313q87 0 126.5 21.5t82.5 89.5l143 219h105l-131 -414h-1145zM645 1628q0 44 31 75.5t74 31.5q45 0 75.5 -31t30.5 -76q0 -43 -30.5 -73.5t-75.5 -30.5q-43 0 -74 30.5t-31 73.5zM1067 1628q0 44 30.5 75.5t73.5 31.5q44 0 74.5 -31.5t30.5 -75.5 q0 -43 -30.5 -73.5t-74.5 -30.5q-43 0 -73.5 30.5t-30.5 73.5z" />
<glyph unicode="&#xcc;" horiz-adv-x="827" d="M-35 0l19 76l186 33q42 8 51 38l293 1096q9 31 -31 39l-174 33l21 76h637l-21 -76l-190 -33q-22 -4 -31 -13t-14 -26l-293 -1096q-6 -15 -0.5 -24.5t26.5 -13.5l174 -35l-20 -74h-633zM535 1751l4 29h180l59 -256h-57z" />
<glyph unicode="&#xcd;" horiz-adv-x="827" d="M-35 0l19 76l186 33q42 8 51 38l293 1096q9 31 -31 39l-174 33l21 76h637l-21 -76l-190 -33q-22 -4 -31 -13t-14 -26l-293 -1096q-6 -15 -0.5 -24.5t26.5 -13.5l174 -35l-20 -74h-633zM537 1524l219 256h217l-8 -29l-361 -227h-67z" />
<glyph unicode="&#xce;" horiz-adv-x="827" d="M-35 0l19 76l186 33q42 8 51 38l293 1096q9 31 -31 39l-174 33l21 76h637l-21 -76l-190 -33q-22 -4 -31 -13t-14 -26l-293 -1096q-6 -15 -0.5 -24.5t26.5 -13.5l174 -35l-20 -74h-633zM328 1524l321 256h219l150 -256h-76l-237 184l-299 -184h-78z" />
<glyph unicode="&#xcf;" horiz-adv-x="827" d="M-35 0l19 76l186 33q42 8 51 38l293 1096q9 31 -31 39l-174 33l21 76h637l-21 -76l-190 -33q-22 -4 -31 -13t-14 -26l-293 -1096q-6 -15 -0.5 -24.5t26.5 -13.5l174 -35l-20 -74h-633zM381 1628q0 44 30.5 75.5t73.5 31.5q45 0 76 -31t31 -76q0 -43 -31 -73.5t-76 -30.5 q-43 0 -73.5 30.5t-30.5 73.5zM803 1628q0 44 30.5 75.5t73.5 31.5q44 0 74.5 -31.5t30.5 -75.5q0 -43 -30.5 -73.5t-74.5 -30.5q-43 0 -73.5 30.5t-30.5 73.5z" />
<glyph unicode="&#xd0;" horiz-adv-x="1531" d="M-43 0l18 76l187 33q42 8 51 38l133 498h-209v98h236l133 500q9 31 -31 39l-172 33l19 76h634q91 0 171.5 -17.5t151 -56t121.5 -95.5t80 -139.5t29 -183.5q0 -184 -64.5 -348t-180.5 -286t-288 -193.5t-376 -71.5h-643zM410 152q-9 -37 3 -52.5t50 -15.5h139 q250 0 419 159t243 443q32 123 32 295q0 165 -81 245.5t-254 80.5h-31q-115 0 -209 -4l-152 -562h326v-92h-350z" />
<glyph unicode="&#xd1;" horiz-adv-x="1521" d="M-49 0l18 74l174 32q31 6 48 22t26 48l287 1067q9 31 -29 39l-174 35l18 74h398l334 -863l77 -239h13l245 925q8 31 -1 47.5t-39 22.5l-158 31l18 76h541l-18 -74l-175 -33q-33 -6 -49 -22t-24 -48l-330 -1224h-90l-387 1001l-72 232h-12l-279 -1047q-8 -31 1.5 -47.5 t39.5 -22.5l158 -30l-18 -76h-541zM803 1610q0 74 49.5 127t132.5 53q42 0 83.5 -19.5t69.5 -43t64.5 -43t69.5 -19.5q42 0 68.5 26.5t45.5 86.5l46 -2q-21 -104 -74.5 -170t-145.5 -66q-40 0 -80.5 20t-68.5 44.5t-65 44.5t-70 20q-32 0 -51 -23t-19 -57q0 -25 6 -49 l-45 -16q-16 40 -16 86z" />
<glyph unicode="&#xd2;" horiz-adv-x="1505" d="M129 510q0 178 64.5 344.5t174.5 290.5t265.5 199t327.5 75q237 0 376.5 -144.5t139.5 -393.5q0 -238 -109 -447t-301 -336t-420 -127q-239 0 -378.5 143.5t-139.5 395.5zM340 418q0 -181 76.5 -272t224.5 -91q111 0 210.5 53t173 143.5t126.5 203t82 239.5 q33 132 33 279q0 362 -301 362q-111 0 -210.5 -52.5t-173 -143t-126.5 -203t-82 -240.5q-33 -132 -33 -278zM913 1751l5 29h180l59 -256h-57z" />
<glyph unicode="&#xd3;" horiz-adv-x="1505" d="M129 510q0 178 64.5 344.5t174.5 290.5t265.5 199t327.5 75q237 0 376.5 -144.5t139.5 -393.5q0 -238 -109 -447t-301 -336t-420 -127q-239 0 -378.5 143.5t-139.5 395.5zM340 418q0 -181 76.5 -272t224.5 -91q111 0 210.5 53t173 143.5t126.5 203t82 239.5 q33 132 33 279q0 362 -301 362q-111 0 -210.5 -52.5t-173 -143t-126.5 -203t-82 -240.5q-33 -132 -33 -278zM879 1524l219 256h217l-8 -29l-361 -227h-67z" />
<glyph unicode="&#xd4;" horiz-adv-x="1505" d="M129 510q0 178 64.5 344.5t174.5 290.5t265.5 199t327.5 75q237 0 376.5 -144.5t139.5 -393.5q0 -238 -109 -447t-301 -336t-420 -127q-239 0 -378.5 143.5t-139.5 395.5zM340 418q0 -181 76.5 -272t224.5 -91q111 0 210.5 53t173 143.5t126.5 203t82 239.5 q33 132 33 279q0 362 -301 362q-111 0 -210.5 -52.5t-173 -143t-126.5 -203t-82 -240.5q-33 -132 -33 -278zM651 1524l322 256h219l149 -256h-75l-238 184l-299 -184h-78z" />
<glyph unicode="&#xd5;" horiz-adv-x="1505" d="M129 510q0 178 64.5 344.5t174.5 290.5t265.5 199t327.5 75q237 0 376.5 -144.5t139.5 -393.5q0 -238 -109 -447t-301 -336t-420 -127q-239 0 -378.5 143.5t-139.5 395.5zM340 418q0 -181 76.5 -272t224.5 -91q111 0 210.5 53t173 143.5t126.5 203t82 239.5 q33 132 33 279q0 362 -301 362q-111 0 -210.5 -52.5t-173 -143t-126.5 -203t-82 -240.5q-33 -132 -33 -278zM772 1610q0 74 49.5 127t132.5 53q42 0 83.5 -19.5t69.5 -43t64.5 -43t69.5 -19.5q43 0 69.5 26.5t45.5 86.5l45 -2q-21 -105 -74 -170.5t-145 -65.5 q-40 0 -80.5 20t-69 44.5t-65.5 44.5t-70 20q-32 0 -51 -23t-19 -57q0 -21 7 -49l-46 -16q-16 40 -16 86z" />
<glyph unicode="&#xd6;" horiz-adv-x="1505" d="M129 510q0 178 64.5 344.5t174.5 290.5t265.5 199t327.5 75q237 0 376.5 -144.5t139.5 -393.5q0 -238 -109 -447t-301 -336t-420 -127q-239 0 -378.5 143.5t-139.5 395.5zM340 418q0 -181 76.5 -272t224.5 -91q111 0 210.5 53t173 143.5t126.5 203t82 239.5 q33 132 33 279q0 362 -301 362q-111 0 -210.5 -52.5t-173 -143t-126.5 -203t-82 -240.5q-33 -132 -33 -278zM721 1628q0 44 30.5 75.5t73.5 31.5q45 0 76 -31t31 -76q0 -43 -31 -73.5t-76 -30.5q-43 0 -73.5 30.5t-30.5 73.5zM1143 1628q0 44 30.5 75.5t73.5 31.5 q44 0 74.5 -31.5t30.5 -75.5q0 -43 -30.5 -73.5t-74.5 -30.5q-43 0 -73.5 30.5t-30.5 73.5z" />
<glyph unicode="&#xd7;" horiz-adv-x="1126" d="M143 233l361 283l-209 283l74 57l209 -281l356 281l57 -70l-360 -284l207 -281l-74 -57l-207 280l-356 -280z" />
<glyph unicode="&#xd8;" horiz-adv-x="1505" d="M-27 41l217 184q-61 122 -61 285q0 178 64.5 344.5t174.5 290.5t265.5 199t327.5 75q258 0 397 -168l184 162l55 -63l-192 -164q72 -129 72 -305q0 -238 -109 -447t-301 -336t-420 -127q-134 0 -239.5 47.5t-171.5 135.5l-205 -177zM340 418q0 -26 4 -72l895 805 q-61 184 -274 184q-111 0 -210.5 -52.5t-173 -143t-126.5 -203t-82 -240.5q-33 -132 -33 -278zM358 264q56 -209 283 -209q111 0 210.5 53t173 143.5t126.5 203t82 239.5q33 132 33 279q0 53 -6 100z" />
<glyph unicode="&#xd9;" horiz-adv-x="1548" d="M221 315q0 89 25 181l200 747q9 31 -28 39l-174 35l20 74h635l-18 -76l-189 -33q-23 -4 -32.5 -13t-14.5 -26l-201 -749q-26 -102 -26 -179q0 -127 76.5 -184t222.5 -57q191 0 301.5 93.5t169.5 315.5l192 725q9 34 -0.5 51.5t-42.5 24.5l-149 33l18 74h531l-19 -76 l-168 -31q-33 -6 -50.5 -23t-26.5 -53l-195 -721q-36 -132 -85.5 -225.5t-124 -160t-178 -98.5t-241.5 -32q-202 0 -315 88.5t-113 255.5zM858 1751l4 29h180l60 -256h-58z" />
<glyph unicode="&#xda;" horiz-adv-x="1548" d="M221 315q0 89 25 181l200 747q9 31 -28 39l-174 35l20 74h635l-18 -76l-189 -33q-23 -4 -32.5 -13t-14.5 -26l-201 -749q-26 -102 -26 -179q0 -127 76.5 -184t222.5 -57q191 0 301.5 93.5t169.5 315.5l192 725q9 34 -0.5 51.5t-42.5 24.5l-149 33l18 74h531l-19 -76 l-168 -31q-33 -6 -50.5 -23t-26.5 -53l-195 -721q-36 -132 -85.5 -225.5t-124 -160t-178 -98.5t-241.5 -32q-202 0 -315 88.5t-113 255.5zM938 1524l219 256h217l-8 -29l-360 -227h-68z" />
<glyph unicode="&#xdb;" horiz-adv-x="1548" d="M221 315q0 89 25 181l200 747q9 31 -28 39l-174 35l20 74h635l-18 -76l-189 -33q-23 -4 -32.5 -13t-14.5 -26l-201 -749q-26 -102 -26 -179q0 -127 76.5 -184t222.5 -57q191 0 301.5 93.5t169.5 315.5l192 725q9 34 -0.5 51.5t-42.5 24.5l-149 33l18 74h531l-19 -76 l-168 -31q-33 -6 -50.5 -23t-26.5 -53l-195 -721q-36 -132 -85.5 -225.5t-124 -160t-178 -98.5t-241.5 -32q-202 0 -315 88.5t-113 255.5zM678 1524l321 256h220l149 -256h-76l-237 184l-299 -184h-78z" />
<glyph unicode="&#xdc;" horiz-adv-x="1548" d="M221 315q0 89 25 181l200 747q9 31 -28 39l-174 35l20 74h635l-18 -76l-189 -33q-23 -4 -32.5 -13t-14.5 -26l-201 -749q-26 -102 -26 -179q0 -127 76.5 -184t222.5 -57q191 0 301.5 93.5t169.5 315.5l192 725q9 34 -0.5 51.5t-42.5 24.5l-149 33l18 74h531l-19 -76 l-168 -31q-33 -6 -50.5 -23t-26.5 -53l-195 -721q-36 -132 -85.5 -225.5t-124 -160t-178 -98.5t-241.5 -32q-202 0 -315 88.5t-113 255.5zM741 1628q0 44 31 75.5t74 31.5q45 0 75.5 -31t30.5 -76q0 -43 -30.5 -73.5t-75.5 -30.5q-43 0 -74 30.5t-31 73.5zM1163 1628 q0 44 31 75.5t74 31.5q44 0 74 -31t30 -76q0 -43 -30 -73.5t-74 -30.5q-43 0 -74 30.5t-31 73.5z" />
<glyph unicode="&#xdd;" horiz-adv-x="1337" d="M176 1315l21 76h634l-20 -76l-197 -31q-35 -5 -26 -45l102 -395l49 -209h11l493 598q11 13 14 24t-4 18t-22 9l-160 31l21 76h520l-21 -74l-153 -33q-48 -8 -72 -39l-596 -700l-106 -398q-9 -30 26 -38l189 -35l-21 -74h-657l18 76l199 33q23 4 32.5 12.5t14.5 25.5 l113 424l-197 676q-9 30 -39 35zM850 1524l219 256h217l-8 -29l-360 -227h-68z" />
<glyph unicode="&#xde;" horiz-adv-x="1310" d="M-41 0l21 76l186 33q40 7 49 38l293 1096q9 31 -29 39l-174 33l19 76h637l-19 -76l-188 -31q-40 -5 -49 -41l-35 -131q57 2 155 2q231 0 361.5 -82.5t130.5 -245.5q0 -112 -47.5 -202t-132 -147t-197 -87.5t-244.5 -30.5q-89 0 -235 11l-49 -183q-5 -16 1 -25t27 -13 l174 -35l-20 -74h-635zM481 410q128 -9 201 -9q204 0 315 108.5t111 303.5q0 114 -67 166.5t-216 52.5q-78 0 -180 -8z" />
<glyph unicode="&#xdf;" horiz-adv-x="1153" d="M-492 -326q0 58 35.5 97t91.5 39q52 0 83.5 -31.5t31.5 -77.5q0 -50 -27.5 -81.5t-58.5 -29.5q38 -18 100 -18q45 0 82 13.5t72.5 46.5t66 94t54.5 151l328 1227q69 258 192 372.5t311 114.5q134 0 216.5 -72t82.5 -198q0 -63 -27.5 -116.5t-68.5 -88t-89 -69t-89.5 -62 t-69.5 -64.5t-28 -77q0 -31 25.5 -75.5t62.5 -93.5t74 -104.5t62.5 -125.5t25.5 -138q0 -156 -110 -246t-273 -90q-113 0 -173.5 48t-60.5 120q0 57 35 95t90 38q47 0 78 -30t31 -74q0 -41 -21.5 -69.5t-58.5 -39.5q29 -16 86 -16q101 0 161 57.5t60 169.5q0 68 -24.5 131.5 t-59.5 112t-70 93.5t-59.5 93t-24.5 93t21 83.5t55 67.5t74.5 57.5t81.5 60t75 67t55 86t21 110.5q0 89 -45.5 141t-134.5 52q-109 0 -179.5 -65.5t-111.5 -211.5q-12 -42 -34.5 -136.5t-30.5 -123.5l-256 -961q-40 -150 -90.5 -253t-112.5 -160.5t-129 -82t-152 -24.5 q-118 0 -185 48t-67 126z" />
<glyph unicode="&#xe0;" d="M72 287q0 98 29 201.5t84.5 196t128.5 166t168 116.5t196 43q82 0 145 -31.5t99 -89.5l102 123h51l-100 -256l-160 -477q-27 -79 -27 -129q0 -78 74 -78q57 0 101.5 64.5t95.5 197.5l63 -19q-29 -80 -54.5 -134t-62 -102.5t-84.5 -72.5t-108 -24q-79 0 -126.5 43 t-47.5 116q0 33 8 66q-133 -236 -321 -236q-120 0 -187 85t-67 231zM252 250q0 -193 123 -193q92 0 178 120.5t172 371.5l92 276q-13 54 -52 82.5t-91 28.5q-73 0 -141.5 -50t-118 -128t-87 -171t-56.5 -181t-19 -156zM549 1526l6 26h186l68 -358h-53z" />
<glyph unicode="&#xe1;" d="M72 287q0 98 29 201.5t84.5 196t128.5 166t168 116.5t196 43q82 0 145 -31.5t99 -89.5l102 123h51l-100 -256l-160 -477q-27 -79 -27 -129q0 -78 74 -78q57 0 101.5 64.5t95.5 197.5l63 -19q-29 -80 -54.5 -134t-62 -102.5t-84.5 -72.5t-108 -24q-79 0 -126.5 43 t-47.5 116q0 33 8 66q-133 -236 -321 -236q-120 0 -187 85t-67 231zM252 250q0 -193 123 -193q92 0 178 120.5t172 371.5l92 276q-13 54 -52 82.5t-91 28.5q-73 0 -141.5 -50t-118 -128t-87 -171t-56.5 -181t-19 -156zM578 1194l253 358h209l-6 -26l-393 -332h-63z" />
<glyph unicode="&#xe2;" d="M72 287q0 98 29 201.5t84.5 196t128.5 166t168 116.5t196 43q82 0 145 -31.5t99 -89.5l102 123h51l-100 -256l-160 -477q-27 -79 -27 -129q0 -78 74 -78q57 0 101.5 64.5t95.5 197.5l63 -19q-29 -80 -54.5 -134t-62 -102.5t-84.5 -72.5t-108 -24q-79 0 -126.5 43 t-47.5 116q0 33 8 66q-133 -236 -321 -236q-120 0 -187 85t-67 231zM252 250q0 -193 123 -193q92 0 178 120.5t172 371.5l92 276q-13 54 -52 82.5t-91 28.5q-73 0 -141.5 -50t-118 -128t-87 -171t-56.5 -181t-19 -156zM344 1194l387 358h150l153 -358h-73l-218 248 l-327 -248h-72z" />
<glyph unicode="&#xe3;" d="M72 287q0 98 29 201.5t84.5 196t128.5 166t168 116.5t196 43q82 0 145 -31.5t99 -89.5l102 123h51l-100 -256l-160 -477q-27 -79 -27 -129q0 -78 74 -78q57 0 101.5 64.5t95.5 197.5l63 -19q-29 -80 -54.5 -134t-62 -102.5t-84.5 -72.5t-108 -24q-79 0 -126.5 43 t-47.5 116q0 33 8 66q-133 -236 -321 -236q-120 0 -187 85t-67 231zM252 250q0 -193 123 -193q92 0 178 120.5t172 371.5l92 276q-13 54 -52 82.5t-91 28.5q-73 0 -141.5 -50t-118 -128t-87 -171t-56.5 -181t-19 -156zM444 1331q0 76 49 132.5t132 56.5q41 0 82.5 -22 t69.5 -48t64.5 -48t69.5 -22q42 0 68 29.5t45 95.5l45 -2q-49 -248 -217 -248q-40 0 -80.5 22t-69 48t-65.5 48t-70 22q-31 0 -49 -23.5t-18 -60.5q0 -33 8 -54l-47 -18q-17 49 -17 92z" />
<glyph unicode="&#xe4;" d="M72 287q0 98 29 201.5t84.5 196t128.5 166t168 116.5t196 43q82 0 145 -31.5t99 -89.5l102 123h51l-100 -256l-160 -477q-27 -79 -27 -129q0 -78 74 -78q57 0 101.5 64.5t95.5 197.5l63 -19q-29 -80 -54.5 -134t-62 -102.5t-84.5 -72.5t-108 -24q-79 0 -126.5 43 t-47.5 116q0 33 8 66q-133 -236 -321 -236q-120 0 -187 85t-67 231zM252 250q0 -193 123 -193q92 0 178 120.5t172 371.5l92 276q-13 54 -52 82.5t-91 28.5q-73 0 -141.5 -50t-118 -128t-87 -171t-56.5 -181t-19 -156zM449 1348q0 45 30.5 76.5t73.5 31.5t73.5 -31t30.5 -75 q0 -43 -31 -74t-75 -31q-43 0 -72.5 30t-29.5 73zM842 1348q0 46 31 77t75 31t74.5 -31t30.5 -75q0 -43 -32 -74t-77 -31q-43 0 -72.5 30t-29.5 73z" />
<glyph unicode="&#xe5;" d="M72 287q0 98 29 201.5t84.5 196t128.5 166t168 116.5t196 43q82 0 145 -31.5t99 -89.5l102 123h51l-100 -256l-160 -477q-27 -79 -27 -129q0 -78 74 -78q57 0 101.5 64.5t95.5 197.5l63 -19q-29 -80 -54.5 -134t-62 -102.5t-84.5 -72.5t-108 -24q-79 0 -126.5 43 t-47.5 116q0 33 8 66q-133 -236 -321 -236q-120 0 -187 85t-67 231zM252 250q0 -193 123 -193q92 0 178 120.5t172 371.5l92 276q-13 54 -52 82.5t-91 28.5q-73 0 -141.5 -50t-118 -128t-87 -171t-56.5 -181t-19 -156zM526 1329q0 97 66.5 165t169.5 69q87 0 143.5 -51 t57.5 -134q0 -96 -67.5 -163.5t-168.5 -67.5q-87 0 -143.5 50t-57.5 132zM606 1329q0 -62 31 -98.5t88 -36.5q75 1 116.5 53t41.5 131q0 60 -31.5 96.5t-89.5 36.5q-74 0 -115 -51.5t-41 -130.5z" />
<glyph unicode="&#xe6;" horiz-adv-x="1574" d="M72 287q0 124 47 252.5t126 233t194 171t241 66.5q141 0 209 -105l90 137h51l-55 -174q142 142 309 142q106 0 169 -49.5t63 -129.5q0 -41 -14.5 -78t-35 -66.5t-59 -58t-70 -48.5t-86 -42t-88.5 -34.5t-96 -30t-91 -25t-89 -22.5q-13 -67 -13 -119q0 -113 52 -173 t141 -60q105 0 189 65t161 189l62 -29q-91 -158 -203 -243t-260 -85q-147 0 -236.5 86t-89.5 230q-71 -160 -159.5 -238t-202.5 -78q-120 0 -188 86t-68 230zM252 250q0 -193 125 -193q94 0 180 120t172 372l92 276q-11 54 -51.5 82.5t-93.5 28.5q-91 0 -174 -75.5 t-135.5 -184.5t-83.5 -224t-31 -202zM901 496h2q90 23 164.5 53t142 72t106 99t38.5 124q0 43 -23 67.5t-67 24.5q-112 0 -213.5 -132.5t-149.5 -307.5z" />
<glyph unicode="&#xe7;" horiz-adv-x="958" d="M53 -449l41 48q61 -35 123 -35q70 0 124 46.5t54 119.5q0 37 -19.5 56t-51.5 19t-62 -12l-33 31l99 153q-120 24 -184 117.5t-64 231.5q0 127 45 251.5t121 219.5t182.5 154t222.5 59q115 0 191 -58.5t76 -146.5q0 -62 -38 -100.5t-96 -38.5q-50 0 -80 29.5t-30 76.5 q0 52 32.5 85.5t69.5 27.5q-28 51 -121 51q-104 0 -197 -100.5t-144.5 -245t-51.5 -283.5q0 -109 49 -170t146 -61q190 0 342 254l63 -31q-180 -328 -459 -328l-26 2l-64 -123q44 13 82 13q65 0 106.5 -32.5t41.5 -90.5q0 -72 -47.5 -127.5t-118.5 -83t-150 -27.5 q-105 0 -174 49z" />
<glyph unicode="&#xe8;" horiz-adv-x="954" d="M76 315q0 132 50 260t131 223t189.5 153.5t219.5 58.5q106 0 168.5 -49.5t62.5 -129.5q0 -60 -25 -110.5t-83 -91t-104 -68t-138 -57t-132 -41t-136 -35.5q-5 -1 -7 -2q-12 -62 -12 -121q0 -112 51.5 -171.5t139.5 -59.5q103 0 187 65t161 189l61 -29 q-188 -328 -463 -328q-148 0 -234.5 90t-86.5 254zM287 496h2q88 23 162 53.5t141 72.5t105 99t38 123q0 43 -23 67.5t-65 24.5q-76 0 -149.5 -65.5t-127 -163.5t-83.5 -211zM479 1526l6 26h187l67 -358h-53z" />
<glyph unicode="&#xe9;" horiz-adv-x="954" d="M76 315q0 132 50 260t131 223t189.5 153.5t219.5 58.5q106 0 168.5 -49.5t62.5 -129.5q0 -60 -25 -110.5t-83 -91t-104 -68t-138 -57t-132 -41t-136 -35.5q-5 -1 -7 -2q-12 -62 -12 -121q0 -112 51.5 -171.5t139.5 -59.5q103 0 187 65t161 189l61 -29 q-188 -328 -463 -328q-148 0 -234.5 90t-86.5 254zM287 496h2q88 23 162 53.5t141 72.5t105 99t38 123q0 43 -23 67.5t-65 24.5q-76 0 -149.5 -65.5t-127 -163.5t-83.5 -211zM510 1194l254 358h209l-6 -26l-394 -332h-63z" />
<glyph unicode="&#xea;" horiz-adv-x="954" d="M76 315q0 132 50 260t131 223t189.5 153.5t219.5 58.5q106 0 168.5 -49.5t62.5 -129.5q0 -60 -25 -110.5t-83 -91t-104 -68t-138 -57t-132 -41t-136 -35.5q-5 -1 -7 -2q-12 -62 -12 -121q0 -112 51.5 -171.5t139.5 -59.5q103 0 187 65t161 189l61 -29 q-188 -328 -463 -328q-148 0 -234.5 90t-86.5 254zM287 496h2q88 23 162 53.5t141 72.5t105 99t38 123q0 43 -23 67.5t-65 24.5q-76 0 -149.5 -65.5t-127 -163.5t-83.5 -211zM291 1194l387 358h149l154 -358h-74l-217 248l-328 -248h-71z" />
<glyph unicode="&#xeb;" horiz-adv-x="954" d="M76 315q0 132 50 260t131 223t189.5 153.5t219.5 58.5q106 0 168.5 -49.5t62.5 -129.5q0 -60 -25 -110.5t-83 -91t-104 -68t-138 -57t-132 -41t-136 -35.5q-5 -1 -7 -2q-12 -62 -12 -121q0 -112 51.5 -171.5t139.5 -59.5q103 0 187 65t161 189l61 -29 q-188 -328 -463 -328q-148 0 -234.5 90t-86.5 254zM287 496h2q88 23 162 53.5t141 72.5t105 99t38 123q0 43 -23 67.5t-65 24.5q-76 0 -149.5 -65.5t-127 -163.5t-83.5 -211zM375 1348q0 45 30.5 76.5t73.5 31.5t74 -31t31 -75q0 -43 -31.5 -74t-75.5 -31q-43 0 -72.5 30 t-29.5 73zM768 1348q0 46 31 77t75 31t74.5 -31t30.5 -75q0 -43 -32 -74t-77 -31q-43 0 -72.5 30t-29.5 73z" />
<glyph unicode="&#xec;" horiz-adv-x="731" d="M53 666q63 174 134 256t184 82q83 0 132.5 -44t49.5 -122q0 -75 -49 -195l-142 -354q-40 -92 -40 -150q0 -65 71 -65q107 0 201 262l63 -17q-62 -175 -134 -257t-185 -82q-83 0 -133.5 43.5t-50.5 121.5t51 197l139 352q43 99 43 150q0 65 -72 65q-102 0 -200 -262z M295 1526l6 26h186l68 -358h-53z" />
<glyph unicode="&#xed;" horiz-adv-x="731" d="M53 666q63 174 134 256t184 82q83 0 132.5 -44t49.5 -122q0 -75 -49 -195l-142 -354q-40 -92 -40 -150q0 -65 71 -65q107 0 201 262l63 -17q-62 -175 -134 -257t-185 -82q-83 0 -133.5 43.5t-50.5 121.5t51 197l139 352q43 99 43 150q0 65 -72 65q-102 0 -200 -262z M348 1194l254 358h209l-6 -26l-393 -332h-64z" />
<glyph unicode="&#xee;" horiz-adv-x="731" d="M53 666q63 174 134 256t184 82q83 0 132.5 -44t49.5 -122q0 -75 -49 -195l-142 -354q-40 -92 -40 -150q0 -65 71 -65q107 0 201 262l63 -17q-62 -175 -134 -257t-185 -82q-83 0 -133.5 43.5t-50.5 121.5t51 197l139 352q43 99 43 150q0 65 -72 65q-102 0 -200 -262z M98 1194l387 358h150l153 -358h-73l-217 248l-328 -248h-72z" />
<glyph unicode="&#xef;" horiz-adv-x="731" d="M53 666q63 174 134 256t184 82q83 0 132.5 -44t49.5 -122q0 -75 -49 -195l-142 -354q-40 -92 -40 -150q0 -65 71 -65q107 0 201 262l63 -17q-62 -175 -134 -257t-185 -82q-83 0 -133.5 43.5t-50.5 121.5t51 197l139 352q43 99 43 150q0 65 -72 65q-102 0 -200 -262z M225 1348q0 45 31 76.5t74 31.5t73.5 -31t30.5 -75q0 -43 -31 -74t-75 -31q-43 0 -73 30t-30 73zM618 1348q0 46 31 77t76 31q44 0 74 -31t30 -75q0 -43 -31.5 -74t-76.5 -31q-43 0 -73 30t-30 73z" />
<glyph unicode="&#xf0;" horiz-adv-x="1046" d="M82 338q0 92 22.5 187t67.5 181.5t106.5 154.5t145.5 108.5t178 40.5q113 0 175.5 -69t62.5 -179v10q0 281 -129 488l-336 -115l-29 80l313 106q-77 102 -202 203l41 49q158 -90 272 -213l277 94l28 -82l-246 -84q160 -216 160 -499q0 -159 -43 -309t-117.5 -265 t-184 -184.5t-234.5 -69.5q-155 0 -241.5 98t-86.5 269zM262 256q0 -98 40.5 -154.5t111.5 -56.5q69 0 130 46.5t102.5 119.5t71.5 164t44 180.5t14 167.5q0 101 -38 157t-109 56q-88 0 -161 -69.5t-116 -176t-66.5 -220.5t-23.5 -214z" />
<glyph unicode="&#xf1;" horiz-adv-x="1255" d="M43 664q63 174 132 254.5t181 80.5q75 0 117.5 -38.5t42.5 -112.5q0 -60 -49 -205q179 367 418 367q98 0 152.5 -54t54.5 -135q0 -84 -43 -192l-136 -348q-32 -82 -32 -136q0 -71 67 -71q55 0 101 63.5t98 198.5l61 -19q-64 -176 -132 -255.5t-183 -79.5q-84 0 -133 44 t-49 115q0 69 45 189l133 352q35 89 35 139q0 40 -26 64t-83 24q-73 0 -151.5 -81.5t-146 -215.5t-118.5 -299l-96 -313h-174l203 649q39 116 39 185q0 71 -66 71q-53 0 -102 -62t-99 -198zM516 1331q0 76 48.5 132.5t131.5 56.5q41 0 82.5 -22t69.5 -48t65 -48t70 -22 q42 0 68 29.5t45 95.5l45 -2q-49 -248 -217 -248q-40 0 -80.5 22t-69 48t-65.5 48t-70 22q-31 0 -49.5 -24t-18.5 -60q0 -30 9 -54l-48 -18q-16 46 -16 92z" />
<glyph unicode="&#xf2;" horiz-adv-x="1054" d="M76 301q0 131 44.5 258.5t120.5 227.5t186 161.5t232 61.5q147 0 236.5 -91t89.5 -241q0 -104 -28 -207t-81.5 -192.5t-124.5 -158.5t-163 -109t-191 -40q-146 0 -233.5 91t-87.5 239zM250 236q0 -191 151 -191q78 0 154 65.5t131 166.5t89 226t34 242q0 193 -152 193 q-103 0 -199 -110t-152 -272.5t-56 -319.5zM528 1526l7 26h186l67 -358h-53z" />
<glyph unicode="&#xf3;" horiz-adv-x="1054" d="M76 301q0 131 44.5 258.5t120.5 227.5t186 161.5t232 61.5q147 0 236.5 -91t89.5 -241q0 -104 -28 -207t-81.5 -192.5t-124.5 -158.5t-163 -109t-191 -40q-146 0 -233.5 91t-87.5 239zM250 236q0 -191 151 -191q78 0 154 65.5t131 166.5t89 226t34 242q0 193 -152 193 q-103 0 -199 -110t-152 -272.5t-56 -319.5zM543 1194l254 358h209l-7 -26l-393 -332h-63z" />
<glyph unicode="&#xf4;" horiz-adv-x="1054" d="M76 301q0 131 44.5 258.5t120.5 227.5t186 161.5t232 61.5q147 0 236.5 -91t89.5 -241q0 -104 -28 -207t-81.5 -192.5t-124.5 -158.5t-163 -109t-191 -40q-146 0 -233.5 91t-87.5 239zM250 236q0 -191 151 -191q78 0 154 65.5t131 166.5t89 226t34 242q0 193 -152 193 q-103 0 -199 -110t-152 -272.5t-56 -319.5zM332 1194l387 358h149l154 -358h-74l-217 248l-328 -248h-71z" />
<glyph unicode="&#xf5;" horiz-adv-x="1054" d="M76 301q0 131 44.5 258.5t120.5 227.5t186 161.5t232 61.5q147 0 236.5 -91t89.5 -241q0 -104 -28 -207t-81.5 -192.5t-124.5 -158.5t-163 -109t-191 -40q-146 0 -233.5 91t-87.5 239zM250 236q0 -191 151 -191q78 0 154 65.5t131 166.5t89 226t34 242q0 193 -152 193 q-103 0 -199 -110t-152 -272.5t-56 -319.5zM446 1331q0 76 49 132.5t132 56.5q41 0 82.5 -22t69.5 -48t64.5 -48t69.5 -22q42 0 68 29.5t45 95.5l45 -2q-49 -248 -217 -248q-40 0 -80.5 22t-69 48t-65.5 48t-70 22q-31 0 -49 -23.5t-18 -60.5q0 -33 8 -54l-47 -18 q-17 49 -17 92z" />
<glyph unicode="&#xf6;" horiz-adv-x="1054" d="M76 301q0 131 44.5 258.5t120.5 227.5t186 161.5t232 61.5q147 0 236.5 -91t89.5 -241q0 -104 -28 -207t-81.5 -192.5t-124.5 -158.5t-163 -109t-191 -40q-146 0 -233.5 91t-87.5 239zM250 236q0 -191 151 -191q78 0 154 65.5t131 166.5t89 226t34 242q0 193 -152 193 q-103 0 -199 -110t-152 -272.5t-56 -319.5zM420 1348q0 45 30.5 76.5t73.5 31.5t74 -31t31 -75q0 -43 -31.5 -74t-75.5 -31q-43 0 -72.5 30t-29.5 73zM813 1348q0 46 31.5 77t75.5 31t74 -31t30 -75q0 -43 -32 -74t-77 -31q-43 0 -72.5 30t-29.5 73z" />
<glyph unicode="&#xf7;" horiz-adv-x="1126" d="M106 465l25 92h897l-24 -92h-898zM406 193q0 39 26 62.5t62 23.5t61 -23t25 -63q0 -41 -25 -65t-61 -24t-62 24t-26 65zM543 829q0 41 26 65t62 24t61 -24t25 -65q0 -40 -25 -63t-61 -23t-62 23.5t-26 62.5z" />
<glyph unicode="&#xf8;" horiz-adv-x="1054" d="M-57 33l155 133q-22 64 -22 135q0 131 44.5 258.5t120.5 227.5t186 161.5t232 61.5q87 0 156.5 -33.5t110.5 -95.5l141 123l45 -54l-154 -129q27 -64 27 -143q0 -104 -28 -207t-81.5 -192.5t-124.5 -158.5t-163 -109t-191 -40q-179 0 -266 133l-143 -122zM252 201 q10 -156 149 -156q98 0 190 99.5t149.5 249.5t66.5 304zM252 289l555 495q-13 154 -150 154q-98 0 -189.5 -98.5t-148.5 -247.5t-67 -303z" />
<glyph unicode="&#xf9;" horiz-adv-x="1249" d="M39 664q31 86 60.5 144.5t67 103.5t84 66t105.5 21q77 0 126.5 -43t49.5 -116q0 -66 -45 -189l-129 -348q-34 -91 -34 -137q0 -45 27 -69.5t79 -24.5q106 0 214.5 156.5t186.5 402.5l111 350h174l-219 -696q-27 -88 -27 -133q0 -38 19.5 -59t52.5 -21q56 0 99.5 61.5 t97.5 200.5l61 -19q-61 -180 -131.5 -256.5t-181.5 -76.5q-71 0 -117.5 39t-46.5 112q0 61 45 184q-164 -344 -412 -344q-95 0 -147.5 53t-52.5 136t41 192l129 336q41 109 41 152q0 63 -68 63q-53 0 -101 -63t-98 -197zM545 1526l6 26h186l68 -358h-53z" />
<glyph unicode="&#xfa;" horiz-adv-x="1249" d="M39 664q31 86 60.5 144.5t67 103.5t84 66t105.5 21q77 0 126.5 -43t49.5 -116q0 -66 -45 -189l-129 -348q-34 -91 -34 -137q0 -45 27 -69.5t79 -24.5q106 0 214.5 156.5t186.5 402.5l111 350h174l-219 -696q-27 -88 -27 -133q0 -38 19.5 -59t52.5 -21q56 0 99.5 61.5 t97.5 200.5l61 -19q-61 -180 -131.5 -256.5t-181.5 -76.5q-71 0 -117.5 39t-46.5 112q0 61 45 184q-164 -344 -412 -344q-95 0 -147.5 53t-52.5 136t41 192l129 336q41 109 41 152q0 63 -68 63q-53 0 -101 -63t-98 -197zM633 1194l254 358h209l-6 -26l-394 -332h-63z" />
<glyph unicode="&#xfb;" horiz-adv-x="1249" d="M39 664q31 86 60.5 144.5t67 103.5t84 66t105.5 21q77 0 126.5 -43t49.5 -116q0 -66 -45 -189l-129 -348q-34 -91 -34 -137q0 -45 27 -69.5t79 -24.5q106 0 214.5 156.5t186.5 402.5l111 350h174l-219 -696q-27 -88 -27 -133q0 -38 19.5 -59t52.5 -21q56 0 99.5 61.5 t97.5 200.5l61 -19q-61 -180 -131.5 -256.5t-181.5 -76.5q-71 0 -117.5 39t-46.5 112q0 61 45 184q-164 -344 -412 -344q-95 0 -147.5 53t-52.5 136t41 192l129 336q41 109 41 152q0 63 -68 63q-53 0 -101 -63t-98 -197zM377 1194l387 358h149l154 -358h-74l-217 248 l-327 -248h-72z" />
<glyph unicode="&#xfc;" horiz-adv-x="1249" d="M39 664q31 86 60.5 144.5t67 103.5t84 66t105.5 21q77 0 126.5 -43t49.5 -116q0 -66 -45 -189l-129 -348q-34 -91 -34 -137q0 -45 27 -69.5t79 -24.5q106 0 214.5 156.5t186.5 402.5l111 350h174l-219 -696q-27 -88 -27 -133q0 -38 19.5 -59t52.5 -21q56 0 99.5 61.5 t97.5 200.5l61 -19q-61 -180 -131.5 -256.5t-181.5 -76.5q-71 0 -117.5 39t-46.5 112q0 61 45 184q-164 -344 -412 -344q-95 0 -147.5 53t-52.5 136t41 192l129 336q41 109 41 152q0 63 -68 63q-53 0 -101 -63t-98 -197zM459 1348q0 45 30.5 76.5t73.5 31.5t74 -31t31 -75 q0 -43 -31.5 -74t-75.5 -31q-43 0 -72.5 30t-29.5 73zM852 1348q0 46 31 77t75 31t74.5 -31t30.5 -75q0 -43 -32 -74t-77 -31q-43 0 -72.5 30t-29.5 73z" />
<glyph unicode="&#xfd;" horiz-adv-x="1132" d="M-43 -309q0 60 35 99.5t94 39.5q47 0 81 -31.5t34 -77.5q0 -48 -28.5 -79t-59.5 -29q47 -41 157 -41q128 0 219.5 81.5t145.5 262.5l20 72l111 291q-160 -306 -393 -306q-94 0 -148.5 53.5t-54.5 135.5q0 84 43 194l129 330q43 114 43 156q0 63 -68 63q-52 0 -99 -63 t-97 -197l-64 19q63 174 133.5 254.5t184.5 80.5q77 0 126.5 -43t49.5 -116q0 -78 -45 -193l-131 -344q-35 -98 -35 -137q0 -94 106 -94q73 0 149 75t139.5 200.5t107.5 283.5l102 350h170l-297 -1020q-36 -124 -95 -215t-132.5 -143.5t-153 -77.5t-168.5 -25 q-140 0 -225.5 53t-85.5 138zM659 1194l254 358h209l-6 -26l-393 -332h-64z" />
<glyph unicode="&#xfe;" horiz-adv-x="1060" d="M-266 -471l18 68l152 34q33 5 43 37l504 1729q5 15 0 22t-23 8l-184 25v64l385 59l55 -16l-80 -218l-55 -188l-137 -377q132 234 327 234q119 0 186.5 -86t67.5 -236q0 -173 -73.5 -337t-207 -272t-290.5 -108q-120 0 -195 72l-106 -375q-9 -32 24 -37l160 -34l-18 -68 h-553zM266 174q10 -62 51 -94.5t105 -32.5q70 0 134 49.5t109.5 127t79.5 169.5t51 179.5t17 154.5q0 105 -29.5 151t-95.5 46q-92 0 -184.5 -123.5t-159.5 -354.5z" />
<glyph unicode="&#xff;" horiz-adv-x="1132" d="M-43 -309q0 60 35 99.5t94 39.5q47 0 81 -31.5t34 -77.5q0 -48 -28.5 -79t-59.5 -29q47 -41 157 -41q128 0 219.5 81.5t145.5 262.5l20 72l111 291q-160 -306 -393 -306q-94 0 -148.5 53.5t-54.5 135.5q0 84 43 194l129 330q43 114 43 156q0 63 -68 63q-52 0 -99 -63 t-97 -197l-64 19q63 174 133.5 254.5t184.5 80.5q77 0 126.5 -43t49.5 -116q0 -78 -45 -193l-131 -344q-35 -98 -35 -137q0 -94 106 -94q73 0 149 75t139.5 200.5t107.5 283.5l102 350h170l-297 -1020q-36 -124 -95 -215t-132.5 -143.5t-153 -77.5t-168.5 -25 q-140 0 -225.5 53t-85.5 138zM469 1348q0 45 30.5 76.5t73.5 31.5t74 -31t31 -75q0 -43 -31.5 -74t-75.5 -31q-43 0 -72.5 30t-29.5 73zM862 1348q0 46 31 77t76 31q44 0 74 -31t30 -75q0 -43 -31.5 -74t-76.5 -31q-43 0 -73 30t-30 73z" />
<glyph unicode="&#x152;" horiz-adv-x="2072" d="M125 510q0 180 67.5 342.5t183.5 281t281 188t351 69.5h1106l-68 -342h-96l-21 131q-12 82 -39 104.5t-114 22.5h-146q-94 0 -196 -4l-148 -549h187q55 0 81.5 15.5t63.5 72.5l98 153h70l-152 -577h-69l-9 160q-4 57 -26 77.5t-76 20.5h-188l-142 -524q-9 -37 3.5 -52.5 t50.5 -15.5h313q87 0 126.5 21.5t82.5 89.5l143 219h105l-131 -414h-1139q-113 0 -211 31t-175.5 92t-122 160.5t-44.5 226.5zM336 453q0 -177 90.5 -273t251.5 -96h24q67 0 104.5 5.5t67.5 23.5t46.5 49.5t31.5 87.5l244 915q23 81 -13.5 111.5t-127.5 30.5h-60 q-104 0 -197.5 -36t-164.5 -98.5t-128.5 -145.5t-93.5 -178.5t-55.5 -196t-19.5 -199.5z" />
<glyph unicode="&#x153;" horiz-adv-x="1638" d="M76 307q0 129 45 255.5t121.5 225.5t187 160.5t232.5 61.5q112 0 184.5 -58.5t99.5 -163.5q77 103 182 162.5t220 59.5q106 0 169.5 -49.5t63.5 -129.5q0 -189 -298 -306q-106 -42 -333 -99q-12 -62 -12 -119q0 -113 52.5 -173t139.5 -60q196 0 351 254l63 -29 q-188 -328 -465 -328q-109 0 -179.5 55.5t-96.5 161.5q-74 -102 -178 -159.5t-226 -57.5q-147 0 -235 93t-88 243zM250 236q0 -191 156 -191q104 0 200.5 109.5t152.5 271.5t56 319q0 193 -156 193q-104 0 -200.5 -109.5t-152.5 -272t-56 -320.5zM965 496h2q90 23 164 53 t141.5 72t106 99t38.5 124q0 43 -23 67.5t-67 24.5q-75 0 -149.5 -65.5t-128.5 -164t-84 -210.5z" />
<glyph unicode="&#x178;" horiz-adv-x="1337" d="M176 1315l21 76h634l-20 -76l-197 -31q-35 -5 -26 -45l102 -395l49 -209h11l493 598q11 13 14 24t-4 18t-22 9l-160 31l21 76h520l-21 -74l-153 -33q-48 -8 -72 -39l-596 -700l-106 -398q-9 -30 26 -38l189 -35l-21 -74h-657l18 76l199 33q23 4 32.5 12.5t14.5 25.5 l113 424l-197 676q-9 30 -39 35zM657 1628q0 44 31 75.5t74 31.5q45 0 75.5 -31t30.5 -76q0 -43 -30.5 -73.5t-75.5 -30.5q-43 0 -74 30.5t-31 73.5zM1079 1628q0 44 31 75.5t74 31.5q44 0 74 -31t30 -76q0 -43 -30 -73.5t-74 -30.5q-43 0 -74 30.5t-31 73.5z" />
<glyph unicode="&#x2c6;" horiz-adv-x="1099" d="M510 1194l387 358h150l153 -358h-74l-217 248l-327 -248h-72z" />
<glyph unicode="&#x2dc;" horiz-adv-x="1099" d="M680 1331q0 76 48.5 132.5t131.5 56.5q41 0 82.5 -22t69.5 -48t65 -48t70 -22q42 0 68 29.5t45 95.5l45 -2q-49 -248 -218 -248q-40 0 -80.5 22t-68.5 48t-65 48t-70 22q-31 0 -49.5 -24t-18.5 -60q0 -33 8 -54l-47 -18q-16 46 -16 92z" />
<glyph unicode="&#x2000;" horiz-adv-x="945" />
<glyph unicode="&#x2001;" horiz-adv-x="1890" />
<glyph unicode="&#x2002;" horiz-adv-x="945" />
<glyph unicode="&#x2003;" horiz-adv-x="1890" />
<glyph unicode="&#x2004;" horiz-adv-x="630" />
<glyph unicode="&#x2005;" horiz-adv-x="472" />
<glyph unicode="&#x2006;" horiz-adv-x="315" />
<glyph unicode="&#x2007;" horiz-adv-x="315" />
<glyph unicode="&#x2008;" horiz-adv-x="236" />
<glyph unicode="&#x2009;" horiz-adv-x="378" />
<glyph unicode="&#x200a;" horiz-adv-x="105" />
<glyph unicode="&#x2010;" horiz-adv-x="698" d="M66 459l30 102h506l-27 -102h-509z" />
<glyph unicode="&#x2011;" horiz-adv-x="698" d="M66 459l30 102h506l-27 -102h-509z" />
<glyph unicode="&#x2012;" horiz-adv-x="698" d="M66 459l30 102h506l-27 -102h-509z" />
<glyph unicode="&#x2013;" horiz-adv-x="1157" d="M86 459l27 102h925l-28 -102h-924z" />
<glyph unicode="&#x2014;" horiz-adv-x="1906" d="M86 459l27 102h1673l-27 -102h-1673z" />
<glyph unicode="&#x2018;" horiz-adv-x="651" d="M373 1145q0 77 28.5 144t80 118.5t113 90t138.5 69.5l27 -68q-127 -52 -208 -135t-81 -156q25 19 59 19q45 0 78 -29t33 -78q0 -59 -39 -94t-96 -35q-61 0 -97 43t-36 111z" />
<glyph unicode="&#x2019;" horiz-adv-x="647" d="M330 1059q127 52 207.5 135t80.5 156q-25 -19 -59 -19q-45 0 -77.5 29t-32.5 78q0 59 39 94t96 35q61 0 97 -43t36 -111q0 -276 -361 -422z" />
<glyph unicode="&#x201a;" horiz-adv-x="655" d="M-33 -283q127 52 208 135t81 156q-24 -18 -59 -18q-45 0 -78 28.5t-33 77.5q0 59 39 94t96 35q61 0 97 -42.5t36 -110.5q0 -77 -28.5 -144t-80 -118.5t-113 -90t-138.5 -69.5z" />
<glyph unicode="&#x201c;" horiz-adv-x="1038" d="M373 1145q0 77 28.5 144t80 118.5t113 90t138.5 69.5l27 -68q-127 -52 -208 -135t-81 -156q25 19 59 19q45 0 78 -29t33 -78q0 -59 -39 -94t-96 -35q-61 0 -97 43t-36 111zM758 1145q0 77 28.5 144t80 118.5t113 90t138.5 69.5l27 -68q-127 -52 -208 -135t-81 -156 q25 19 59 19q45 0 78 -29t33 -78q0 -59 -39 -94t-96 -35q-61 0 -97 43t-36 111z" />
<glyph unicode="&#x201d;" horiz-adv-x="1032" d="M330 1059q127 52 207.5 135t80.5 156q-25 -19 -59 -19q-45 0 -77.5 29t-32.5 78q0 59 39 94t96 35q61 0 97 -43t36 -111q0 -276 -361 -422zM715 1059q127 52 208 135t81 156q-25 -19 -60 -19q-45 0 -77.5 29t-32.5 78q0 59 39 94t96 35q61 0 97 -43t36 -111 q0 -276 -361 -422z" />
<glyph unicode="&#x201e;" horiz-adv-x="1040" d="M-33 -283q127 52 208 135t81 156q-24 -18 -59 -18q-45 0 -78 28.5t-33 77.5q0 59 39 94t96 35q61 0 97 -42.5t36 -110.5q0 -77 -28.5 -144t-80 -118.5t-113 -90t-138.5 -69.5zM352 -283q127 52 208 135t81 156q-24 -18 -59 -18q-45 0 -78 28.5t-33 77.5q0 59 39 94t96 35 q61 0 97 -42.5t36 -110.5q0 -77 -28.5 -144t-80 -118.5t-113 -90t-138.5 -69.5z" />
<glyph unicode="&#x2022;" horiz-adv-x="837" d="M147 494q0 118 84 202t203 84q107 0 179.5 -74t72.5 -182q0 -116 -85.5 -199t-203.5 -83q-107 0 -178.5 73t-71.5 179z" />
<glyph unicode="&#x2026;" horiz-adv-x="1591" d="M74 113q0 66 43.5 105.5t103.5 39.5q56 0 93.5 -35.5t37.5 -95.5q0 -65 -43.5 -105t-103.5 -40q-54 0 -92.5 36.5t-38.5 94.5zM559 113q0 66 44 105.5t104 39.5q56 0 93.5 -35.5t37.5 -95.5q0 -65 -44 -105t-104 -40q-54 0 -92.5 36.5t-38.5 94.5zM1044 113 q0 66 44 105.5t104 39.5q56 0 93.5 -35.5t37.5 -95.5q0 -65 -43.5 -105t-103.5 -40q-54 0 -93 36.5t-39 94.5z" />
<glyph unicode="&#x202f;" horiz-adv-x="378" />
<glyph unicode="&#x2039;" horiz-adv-x="712" d="M80 475l18 68l490 387l37 -39l-379 -393l209 -375l-45 -33z" />
<glyph unicode="&#x203a;" horiz-adv-x="710" d="M53 129l379 393l-209 375l45 33l330 -385l-18 -68l-490 -387z" />
<glyph unicode="&#x205f;" horiz-adv-x="472" />
<glyph unicode="&#x20ac;" horiz-adv-x="1228" d="M16 465l15 59l155 17q12 98 47 200l-145 17l16 61l168 21q94 209 258.5 340t376.5 131q107 0 173 -34t106 -101l82 135h61l-143 -486h-84v103q0 60 -4.5 104.5t-16.5 84.5t-33 64.5t-54.5 39t-80.5 14.5q-136 0 -250.5 -110.5t-189.5 -288.5h399l-30 -64l-404 -24 q-35 -103 -53 -209h354l-28 -60l-338 -24q-6 -62 -6 -119q0 -289 211 -289q125 0 226 103.5t197 318.5h89l-136 -496h-61l2 123q-134 -125 -334 -125q-184 0 -284.5 111t-100.5 319v39z" />
<glyph unicode="&#x2122;" horiz-adv-x="1820" d="M334 1180l10 211h578l8 -211h-37l-27 114q-6 25 -20 34t-51 9h-117v-512q0 -19 20 -22l101 -17v-36h-332v36l98 17q21 3 21 22v512h-117q-40 0 -53 -7.5t-19 -35.5l-24 -114h-39zM1006 750v36l86 19q24 5 24 31v479q0 19 -18 22l-92 17v37h215l170 -396l49 -135h4 l231 531h207v-27l-82 -16q-18 -3 -18 -23v-500q0 -19 18 -22l82 -17v-36h-301v36l90 17q19 3 19 22v459h-4l-238 -536h-47l-182 419l-45 119h-5v-450q0 -15 5.5 -21.5t19.5 -9.5l84 -19v-36h-272z" />
<glyph unicode="&#x25fc;" horiz-adv-x="1003" d="M0 0v1004h1004v-1004h-1004z" />
</font>
</defs>
</svg>
